<svg width="140" height="32" viewBox="0 0 140 32" fill="none" xmlns="http://www.w3.org/2000/svg">
<path fill-rule="evenodd" clip-rule="evenodd" d="M15.711 31.0173C24.1119 31.0173 30.9221 24.2071 30.9221 15.8062C30.9221 7.40544 24.1119 0.595215 15.711 0.595215C7.3102 0.595215 0.5 7.40544 0.5 15.8062C0.5 24.2071 7.3102 31.0173 15.711 31.0173ZM20.4564 7.68116C20.6873 6.86068 19.8911 6.37551 19.1639 6.89358L9.01294 14.1251C8.22433 14.6869 8.34837 15.8062 9.19928 15.8062H11.8723V15.7856H17.0819L12.8371 17.2833L10.9657 23.9314C10.7348 24.7519 11.5309 25.237 12.2581 24.7189L22.4091 17.4874C23.1978 16.9256 23.0736 15.8062 22.2228 15.8062H18.1692L20.4564 7.68116Z" fill="#0D0C0C"/>
<path d="M49.0368 23.8282C47.3901 23.8282 45.9943 23.5302 44.8495 22.9343C43.7047 22.3227 42.8265 21.4052 42.2149 20.182C41.6189 18.9431 41.3209 17.3748 41.3209 15.4772C41.3209 12.67 42.0031 10.5764 43.3675 9.19636C44.7319 7.8163 46.6295 7.12626 49.0603 7.12626C50.4404 7.12626 51.6636 7.35366 52.73 7.80846C53.7964 8.24757 54.6276 8.92192 55.2235 9.83151C55.8352 10.7254 56.141 11.8546 56.141 13.2189H53.8827C53.8827 12.278 53.6788 11.5017 53.2711 10.8901C52.879 10.2785 52.3223 9.82366 51.6009 9.5257C50.8795 9.21204 50.0326 9.05522 49.0603 9.05522C47.9311 9.05522 46.9588 9.27477 46.1433 9.71389C45.3278 10.153 44.7084 10.8352 44.2849 11.7605C43.8615 12.67 43.6498 13.8462 43.6498 15.289V15.783C43.6498 17.2101 43.8615 18.3785 44.2849 19.2881C44.7084 20.182 45.32 20.8407 46.1198 21.2641C46.9353 21.6875 47.9155 21.8992 49.0603 21.8992C50.064 21.8992 50.9265 21.7502 51.6479 21.4523C52.385 21.1543 52.9496 20.6995 53.3416 20.0879C53.7494 19.4606 53.9532 18.6765 53.9532 17.7355H56.141C56.141 19.1313 55.8273 20.2761 55.2 21.17C54.5884 22.0639 53.7494 22.7304 52.683 23.1695C51.6165 23.6086 50.4011 23.8282 49.0368 23.8282ZM63.7048 23.8282C62.4502 23.8282 61.3916 23.6008 60.5291 23.146C59.6822 22.6755 59.0314 21.962 58.5766 21.0053C58.1375 20.0487 57.9179 18.8333 57.9179 17.3591C57.9179 15.8693 58.1375 14.6539 58.5766 13.7129C59.0314 12.7563 59.6822 12.0506 60.5291 11.5958C61.3916 11.1253 62.4502 10.8901 63.7048 10.8901C64.9594 10.8901 66.0101 11.1253 66.857 11.5958C67.7195 12.0506 68.3704 12.7563 68.8095 13.7129C69.2486 14.6539 69.4681 15.8693 69.4681 17.3591C69.4681 18.8333 69.2486 20.0487 68.8095 21.0053C68.3704 21.962 67.7195 22.6755 66.857 23.146C66.0101 23.6008 64.9594 23.8282 63.7048 23.8282ZM63.7048 22.0874C64.5046 22.0874 65.1711 21.9306 65.7043 21.6169C66.2375 21.3033 66.6374 20.8171 66.904 20.1585C67.1863 19.4841 67.3275 18.6373 67.3275 17.6179V17.1004C67.3275 16.0653 67.1863 15.2185 66.904 14.5598C66.6374 13.9011 66.2375 13.415 65.7043 13.1013C65.1711 12.7877 64.5046 12.6308 63.7048 12.6308C62.905 12.6308 62.2306 12.7877 61.6817 13.1013C61.1485 13.415 60.7486 13.9011 60.482 14.5598C60.2154 15.2185 60.0821 16.0653 60.0821 17.1004V17.6179C60.0821 18.6373 60.2154 19.4841 60.482 20.1585C60.7486 20.8171 61.1485 21.3033 61.6817 21.6169C62.2306 21.9306 62.905 22.0874 63.7048 22.0874ZM76.0151 23.8282C74.9957 23.8282 74.1175 23.6008 73.3804 23.146C72.659 22.6912 72.0945 21.9855 71.6867 21.0288C71.2947 20.0565 71.0986 18.8019 71.0986 17.265C71.0986 15.8066 71.3025 14.6068 71.7102 13.6659C72.118 12.7249 72.6826 12.0271 73.404 11.5723C74.1254 11.1175 74.9644 10.8901 75.921 10.8901C76.4699 10.8901 76.9796 10.9528 77.4501 11.0783C77.9205 11.2037 78.3361 11.3998 78.6968 11.6664C79.0732 11.933 79.4025 12.2858 79.6848 12.7249H79.826V6.53817H81.8961V23.5459H80.2259L80.0377 21.7816H79.873C79.4496 22.4716 78.9007 22.9892 78.2263 23.3342C77.552 23.6635 76.8149 23.8282 76.0151 23.8282ZM76.5091 22.0168C77.2932 22.0168 77.9284 21.8443 78.4145 21.4993C78.9007 21.1543 79.2536 20.6525 79.4731 19.9938C79.7083 19.3351 79.826 18.5196 79.826 17.5473V17.1709C79.826 16.3241 79.7397 15.6105 79.5672 15.0303C79.3947 14.45 79.1595 13.9874 78.8615 13.6424C78.5635 13.2973 78.2185 13.0543 77.8264 12.9131C77.4344 12.772 77.0188 12.7014 76.5797 12.7014C75.8112 12.7014 75.1839 12.8582 74.6978 13.1719C74.2116 13.4699 73.8509 13.9482 73.6157 14.6068C73.3804 15.2498 73.2628 16.0888 73.2628 17.1239V17.6179C73.2628 18.6843 73.3883 19.5468 73.6392 20.2055C73.8901 20.8485 74.2508 21.3111 74.7213 21.5934C75.2075 21.8757 75.8034 22.0168 76.5091 22.0168ZM89.8561 23.8282C88.6329 23.8282 87.5978 23.6008 86.751 23.146C85.9198 22.6755 85.2847 21.962 84.8455 21.0053C84.4221 20.0487 84.2104 18.8333 84.2104 17.3591C84.2104 15.8693 84.4221 14.6539 84.8455 13.7129C85.2847 12.7563 85.9276 12.0506 86.7745 11.5958C87.6214 11.1253 88.6799 10.8901 89.9502 10.8901C91.1107 10.8901 92.083 11.1175 92.8672 11.5723C93.6513 12.0114 94.2394 12.6779 94.6315 13.5718C95.0392 14.45 95.2431 15.5556 95.2431 16.8887V17.8767H86.3511C86.3824 18.8647 86.5236 19.6801 86.7745 20.3231C87.0411 20.9504 87.4332 21.4131 87.9507 21.711C88.4682 21.9933 89.119 22.1345 89.9032 22.1345C90.4364 22.1345 90.899 22.0717 91.2911 21.9463C91.6988 21.8051 92.036 21.6091 92.3026 21.3582C92.5849 21.1073 92.7966 20.8093 92.9377 20.4643C93.0789 20.1193 93.1573 19.7429 93.173 19.3351H95.196C95.1803 19.9938 95.0549 20.6054 94.8196 21.17C94.5844 21.7189 94.2394 22.1894 93.7846 22.5814C93.3298 22.9735 92.7731 23.2793 92.1144 23.4989C91.4557 23.7184 90.703 23.8282 89.8561 23.8282ZM86.3981 16.3241H93.1024C93.1024 15.634 93.024 15.0538 92.8672 14.5833C92.7103 14.1128 92.4829 13.7286 92.185 13.4307C91.9027 13.1327 91.5655 12.921 91.1735 12.7955C90.7971 12.6544 90.3658 12.5838 89.8796 12.5838C89.1582 12.5838 88.5466 12.7171 88.0448 12.9837C87.5429 13.2503 87.1587 13.658 86.8921 14.2069C86.6255 14.7558 86.4608 15.4615 86.3981 16.3241ZM97.9684 23.5459V7.40855H100.203V21.5934H108.225V23.5459H97.9684ZM113.05 23.8282C112.595 23.8282 112.141 23.7733 111.686 23.6635C111.231 23.5537 110.808 23.3734 110.416 23.1225C110.024 22.8715 109.71 22.5265 109.475 22.0874C109.239 21.6326 109.122 21.0681 109.122 20.3937C109.122 19.5468 109.326 18.849 109.733 18.3001C110.141 17.7512 110.706 17.3278 111.427 17.0298C112.164 16.7161 113.035 16.5044 114.038 16.3947C115.042 16.2692 116.132 16.2065 117.308 16.2065V14.795C117.308 14.3402 117.23 13.9482 117.073 13.6188C116.916 13.2895 116.634 13.0386 116.226 12.8661C115.834 12.6779 115.269 12.5838 114.532 12.5838C113.827 12.5838 113.262 12.6779 112.839 12.8661C112.431 13.0386 112.141 13.266 111.968 13.5483C111.811 13.8306 111.733 14.1442 111.733 14.4892V14.8421H109.733C109.718 14.7637 109.71 14.6853 109.71 14.6068C109.71 14.5284 109.71 14.4343 109.71 14.3246C109.71 13.5718 109.914 12.9445 110.321 12.4426C110.745 11.9251 111.333 11.5409 112.086 11.29C112.839 11.0234 113.701 10.8901 114.673 10.8901C115.708 10.8901 116.571 11.0391 117.261 11.337C117.967 11.635 118.492 12.0584 118.837 12.6073C119.198 13.1562 119.378 13.8149 119.378 14.5833V21.2876C119.378 21.5856 119.449 21.7973 119.59 21.9228C119.731 22.0325 119.904 22.0874 120.107 22.0874H121.025V23.4518C120.805 23.5459 120.562 23.6243 120.296 23.687C120.029 23.7655 119.723 23.8047 119.378 23.8047C118.97 23.8047 118.633 23.7184 118.367 23.5459C118.1 23.3891 117.896 23.1695 117.755 22.8872C117.614 22.5893 117.52 22.2599 117.473 21.8992H117.308C117.026 22.2913 116.665 22.6363 116.226 22.9343C115.803 23.2166 115.324 23.4361 114.791 23.5929C114.258 23.7498 113.678 23.8282 113.05 23.8282ZM113.568 22.0874C114.07 22.0874 114.54 22.009 114.979 21.8522C115.434 21.6954 115.834 21.4758 116.179 21.1935C116.524 20.8955 116.798 20.5427 117.002 20.1349C117.206 19.7272 117.308 19.2802 117.308 18.7941V17.759C116.038 17.759 114.956 17.8296 114.062 17.9708C113.168 18.1119 112.478 18.3628 111.992 18.7235C111.521 19.0842 111.286 19.5939 111.286 20.2526C111.286 20.676 111.38 21.021 111.568 21.2876C111.756 21.5542 112.023 21.7581 112.368 21.8992C112.713 22.0247 113.113 22.0874 113.568 22.0874ZM128.409 23.8282C127.578 23.8282 126.833 23.6635 126.175 23.3342C125.516 22.9892 124.975 22.4716 124.552 21.7816H124.387L124.175 23.5459H122.529V6.53817H124.599V12.7249H124.74C125.022 12.2858 125.351 11.933 125.728 11.6664C126.104 11.3998 126.528 11.2037 126.998 11.0783C127.469 10.9528 127.97 10.8901 128.504 10.8901C129.46 10.8901 130.299 11.1175 131.021 11.5723C131.742 12.0271 132.299 12.7249 132.691 13.6659C133.099 14.6068 133.302 15.8066 133.302 17.265C133.302 18.8019 133.106 20.0565 132.714 21.0288C132.322 21.9855 131.766 22.6912 131.044 23.146C130.323 23.6008 129.445 23.8282 128.409 23.8282ZM127.915 22.0168C128.621 22.0168 129.209 21.8757 129.68 21.5934C130.166 21.3111 130.534 20.8485 130.785 20.2055C131.036 19.5468 131.162 18.6843 131.162 17.6179V17.1239C131.162 16.0888 131.044 15.2498 130.809 14.6068C130.574 13.9482 130.213 13.4699 129.727 13.1719C129.241 12.8582 128.613 12.7014 127.845 12.7014C127.406 12.7014 126.99 12.772 126.598 12.9131C126.206 13.0543 125.853 13.2973 125.54 13.6424C125.242 13.9874 125.006 14.45 124.834 15.0303C124.677 15.6105 124.599 16.3241 124.599 17.1709V17.5473C124.599 18.5196 124.708 19.3351 124.928 19.9938C125.163 20.6525 125.524 21.1543 126.01 21.4993C126.512 21.8443 127.147 22.0168 127.915 22.0168Z" fill="#0D0C0C"/>
</svg>
