<svg width="48" height="48" viewBox="0 0 48 48" fill="none" xmlns="http://www.w3.org/2000/svg">
<path fill-rule="evenodd" clip-rule="evenodd" d="M24 48C37.2548 48 48 37.2548 48 24C48 10.7452 37.2548 0 24 0C10.7451 0 0 10.7452 0 24C0 37.2548 10.7451 48 24 48ZM31.4872 11.1802C31.8516 9.88567 30.5953 9.12016 29.448 9.93757L13.4317 21.3475C12.1875 22.2339 12.3832 24 13.7257 24H17.9433V23.9673H26.163L19.4655 26.3305L16.5129 36.8198C16.1484 38.1144 17.4046 38.8799 18.552 38.0624L34.5683 26.6526C35.8126 25.7661 35.6167 24 34.2743 24H27.8785L31.4872 11.1802Z" fill="#0D0C0C"/>
</svg>
