<svg width="20" height="20" viewBox="0 0 20 20" fill="none" xmlns="http://www.w3.org/2000/svg">
<path fill-rule="evenodd" clip-rule="evenodd" d="M12.5 9.16667H5.83333L5.83333 7.50001C5.83333 7.03977 5.46024 6.66668 5 6.66668C4.53976 6.66668 4.16667 7.03977 4.16667 7.50001V12.5C4.16667 12.9602 4.53976 13.3333 5 13.3333C5.46024 13.3333 5.83333 12.9602 5.83333 12.5L5.83333 10.8333H12.5C14.3409 10.8333 15.8333 9.34095 15.8333 7.50001V6.66667H14.1667V7.50001C14.1667 8.42048 13.4205 9.16667 12.5 9.16667Z" fill="#464343"/>
<path fill-rule="evenodd" clip-rule="evenodd" d="M1.66667 15.8333C1.66667 17.6743 3.15905 19.1667 5 19.1667C6.84095 19.1667 8.33333 17.6743 8.33333 15.8333C8.33333 13.9924 6.84095 12.5 5 12.5C3.15905 12.5 1.66667 13.9924 1.66667 15.8333ZM6.66667 15.8333C6.66667 16.7538 5.92048 17.5 5 17.5C4.07953 17.5 3.33334 16.7538 3.33334 15.8333C3.33334 14.9129 4.07953 14.1667 5 14.1667C5.92048 14.1667 6.66667 14.9129 6.66667 15.8333Z" fill="#464343"/>
<path fill-rule="evenodd" clip-rule="evenodd" d="M11.6667 4.16666C11.6667 6.00761 13.1591 7.49999 15 7.49999C16.841 7.49999 18.3333 6.00761 18.3333 4.16666C18.3333 2.32571 16.841 0.833328 15 0.833328C13.1591 0.833328 11.6667 2.32571 11.6667 4.16666ZM16.6667 4.16667C16.6667 5.08714 15.9205 5.83333 15 5.83333C14.0795 5.83333 13.3333 5.08714 13.3333 4.16667C13.3333 3.24619 14.0795 2.5 15 2.5C15.9205 2.5 16.6667 3.24619 16.6667 4.16667Z" fill="#464343"/>
<path fill-rule="evenodd" clip-rule="evenodd" d="M1.66667 4.16666C1.66667 6.00761 3.15905 7.49999 5 7.49999C6.84095 7.49999 8.33333 6.00761 8.33333 4.16666C8.33333 2.32571 6.84095 0.833328 5 0.833328C3.15905 0.833328 1.66667 2.32571 1.66667 4.16666ZM6.66667 4.16667C6.66667 5.08714 5.92048 5.83333 5 5.83333C4.07953 5.83333 3.33334 5.08714 3.33334 4.16667C3.33334 3.24619 4.07953 2.5 5 2.5C5.92048 2.5 6.66667 3.24619 6.66667 4.16667Z" fill="#464343"/>
</svg>
