<svg width="500" height="500" viewBox="0 0 500 500" fill="none" xmlns="http://www.w3.org/2000/svg">
<g opacity="0.5">
<mask id="mask0_574_1552" style="mask-type:alpha" maskUnits="userSpaceOnUse" x="0" y="0" width="500" height="500">
<rect width="499.5" height="499.5" transform="translate(0.250122)" fill="url(#paint0_radial_574_1552)"/>
</mask>
<g mask="url(#mask0_574_1552)">
<rect x="165.775" y="196.094" width="141.228" height="141.228" rx="17.096" transform="rotate(-12.5 165.775 196.094)" stroke="#E9EAEB" stroke-width="1.48661"/>
<rect x="123.221" y="168.983" width="212.585" height="212.585" rx="17.096" transform="rotate(-12.5 123.221 168.983)" stroke="#E9EAEB" stroke-width="1.48661"/>
<rect x="80.6672" y="141.872" width="283.942" height="283.942" rx="17.096" transform="rotate(-12.5 80.6672 141.872)" stroke="#E9EAEB" stroke-width="1.48661"/>
<rect x="38.1146" y="114.76" width="355.299" height="355.299" rx="17.096" transform="rotate(-12.5 38.1146 114.76)" stroke="#E9EAEB" stroke-width="1.48661"/>
<rect x="-4.43961" y="87.6491" width="426.656" height="426.656" rx="17.096" transform="rotate(-12.5 -4.43961 87.6491)" stroke="#E9EAEB" stroke-width="1.48661"/>
<rect x="-46.9937" y="60.5379" width="498.013" height="498.013" rx="17.096" transform="rotate(-12.5 -46.9937 60.5379)" stroke="#E9EAEB" stroke-width="1.48661"/>
</g>
</g>
<line x1="222.646" y1="231.354" x2="171.646" y2="180.354" stroke="#9147DC" stroke-dasharray="4 4"/>
<line x1="189.811" y1="359.463" x2="101.811" y2="323.463" stroke="#9147DC" stroke-dasharray="4 4"/>
<line x1="312.829" y1="410.47" x2="213.829" y2="374.47" stroke="#9147DC" stroke-dasharray="4 4"/>
<line x1="238.724" y1="271.159" x2="208.474" y2="361.298" stroke="#9147DC" stroke-dasharray="4 4"/>
<line x1="258.46" y1="266.805" x2="317.46" y2="405.805" stroke="#9147DC" stroke-dasharray="4 4"/>
<line x1="264.176" y1="260.532" x2="368.176" y2="299.532" stroke="#9147DC" stroke-dasharray="4 4"/>
<line x1="382.291" y1="305.593" x2="452.291" y2="355.593" stroke="#9147DC" stroke-dasharray="4 4"/>
<line x1="206.437" y1="369.243" x2="162.437" y2="448.243" stroke="#9147DC" stroke-dasharray="4 4"/>
<line x1="222.828" y1="260.804" x2="102.184" y2="308.465" stroke="#9147DC" stroke-dasharray="4 4"/>
<line x1="143.459" y1="180.198" x2="91.0086" y2="301.595" stroke="#9147DC" stroke-dasharray="4 4"/>
<line x1="133.844" y1="167.381" x2="61.9592" y2="161.498" stroke="#9147DC" stroke-dasharray="4 4"/>
<line x1="143.296" y1="149.735" x2="105.574" y2="88.2615" stroke="#9147DC" stroke-dasharray="4 4"/>
<line x1="164.611" y1="147.508" x2="243.611" y2="49.6859" stroke="#9147DC" stroke-dasharray="4 4"/>
<line x1="264.533" y1="225.561" x2="291.533" y2="154.822" stroke="#9147DC" stroke-dasharray="4 4"/>
<line x1="315.86" y1="122.52" x2="411.86" y2="94.52" stroke="#9147DC" stroke-dasharray="4 4"/>
<line x1="313.281" y1="137.587" x2="460.281" y2="237.587" stroke="#9147DC" stroke-dasharray="4 4"/>
<line x1="309.468" y1="129.825" x2="368.468" y2="287.825" stroke="#9147DC" stroke-dasharray="4 4"/>
<line x1="468.245" y1="246.436" x2="372.245" y2="300.441" stroke="#9147DC" stroke-dasharray="4 4"/>
<line x1="368.463" y1="306.189" x2="323.463" y2="416.189" stroke="#9147DC" stroke-dasharray="4 4"/>
<line x1="168.52" y1="152.813" x2="282.277" y2="129.208" stroke="#9147DC" stroke-dasharray="4 4"/>
<line x1="297.659" y1="113.234" x2="266.544" y2="44.2055" stroke="#9147DC" stroke-dasharray="4 4"/>
<circle cx="43.5" cy="160.5" r="26.5" fill="url(#paint1_linear_574_1552)" fill-opacity="0.5"/>
<circle cx="44" cy="161" r="16" fill="white"/>
<circle cx="44" cy="161" r="8.75" fill="#363538"/>
<path d="M38.0346 161C38.0346 163.364 39.4096 165.4 41.3981 166.368L38.5529 158.573C38.2112 159.336 38.0346 160.163 38.0346 161ZM44 166.965C44.6928 166.965 45.3591 166.844 45.9832 166.627L45.9409 166.548L44.1058 161.524L42.3183 166.722C42.8471 166.881 43.413 166.965 44 166.965ZM44.8197 158.202L46.9774 164.617L47.575 162.629C47.8288 161.804 48.0245 161.212 48.0245 160.699C48.0245 159.958 47.7601 159.45 47.538 159.059C47.2313 158.562 46.951 158.144 46.951 157.658C46.951 157.108 47.3635 156.6 47.9558 156.6H48.0298C46.9306 155.591 45.4921 155.032 44 155.035C43.012 155.034 42.0395 155.28 41.1699 155.749C40.3003 156.218 39.5609 156.896 39.0183 157.721L39.399 157.732C40.0231 157.732 40.9856 157.652 40.9856 157.652C41.3135 157.637 41.3505 158.107 41.0279 158.144C41.0279 158.144 40.7053 158.187 40.3404 158.202L42.5192 164.665L43.8255 160.751L42.8947 158.202C42.6862 158.191 42.4781 158.173 42.2707 158.15C41.9481 158.128 41.9851 157.637 42.3077 157.652C42.3077 157.652 43.2913 157.732 43.8784 157.732C44.5024 157.732 45.4649 157.652 45.4649 157.652C45.7875 157.637 45.8298 158.107 45.5072 158.144C45.5072 158.144 45.1846 158.181 44.8197 158.202ZM46.9986 166.156C47.901 165.632 48.6499 164.879 49.1706 163.974C49.6912 163.07 49.9653 162.044 49.9654 161C49.9654 159.963 49.701 158.99 49.2356 158.139C49.3301 159.076 49.1883 160.021 48.8231 160.889L46.9986 166.156ZM44 167.875C42.1766 167.875 40.428 167.151 39.1386 165.861C37.8493 164.572 37.125 162.823 37.125 161C37.125 159.177 37.8493 157.428 39.1386 156.139C40.428 154.849 42.1766 154.125 44 154.125C45.8234 154.125 47.572 154.849 48.8614 156.139C50.1507 157.428 50.875 159.177 50.875 161C50.875 162.823 50.1507 164.572 48.8614 165.861C47.572 167.151 45.8234 167.875 44 167.875Z" fill="white"/>
<circle cx="151.5" cy="164.5" r="26.5" fill="url(#paint2_linear_574_1552)" fill-opacity="0.5"/>
<circle cx="152" cy="165" r="16" fill="white"/>
<path d="M153.083 168.458L155.458 166.083L153.083 163.708M149.917 160.542L147.542 162.917L149.917 165.292M148.175 171.625H154.825C156.155 171.625 156.82 171.625 157.328 171.366C157.775 171.138 158.138 170.775 158.366 170.328C158.625 169.82 158.625 169.155 158.625 167.825V161.175C158.625 159.845 158.625 159.18 158.366 158.672C158.138 158.225 157.775 157.862 157.328 157.634C156.82 157.375 156.155 157.375 154.825 157.375H148.175C146.845 157.375 146.18 157.375 145.672 157.634C145.225 157.862 144.862 158.225 144.634 158.672C144.375 159.18 144.375 159.845 144.375 161.175V167.825C144.375 169.155 144.375 169.82 144.634 170.328C144.862 170.775 145.225 171.138 145.672 171.366C146.18 171.625 146.845 171.625 148.175 171.625Z" stroke="#363538" stroke-width="1.58333" stroke-linecap="round" stroke-linejoin="round"/>
<circle cx="250" cy="250" r="32" fill="#363538"/>
<path fill-rule="evenodd" clip-rule="evenodd" d="M250 282C267.673 282 282 267.673 282 250C282 232.327 267.673 218 250 218C232.327 218 218 232.327 218 250C218 267.673 232.327 282 250 282ZM259.983 232.907C260.469 231.181 258.794 230.16 257.264 231.25L235.909 246.463C234.25 247.645 234.511 250 236.301 250H241.924V249.956H252.884L243.954 253.107L240.017 267.093C239.531 268.819 241.206 269.84 242.736 268.75L264.091 253.537C265.75 252.355 265.489 250 263.699 250H255.171L259.983 232.907Z" fill="white"/>
<circle cx="83.5" cy="316.5" r="26.5" fill="url(#paint3_linear_574_1552)" fill-opacity="0.5"/>
<circle cx="84" cy="317" r="16" fill="white"/>
<path fill-rule="evenodd" clip-rule="evenodd" d="M83.5 316.5C83.5 315.18 84.5703 314.109 85.8906 314.109C87.2109 314.109 88.2813 315.18 88.2813 316.5C88.2813 317.82 87.2109 318.891 85.8906 318.891C84.5703 318.891 83.5 317.82 83.5 316.5Z" fill="#363538"/>
<path fill-rule="evenodd" clip-rule="evenodd" d="M78.7188 321.281C78.7188 319.961 79.7891 318.891 81.1094 318.891H83.5V321.281C83.5 322.602 82.4297 323.672 81.1094 323.672C79.7891 323.672 78.7188 322.602 78.7188 321.281Z" fill="#363538"/>
<path fill-rule="evenodd" clip-rule="evenodd" d="M83.5 309.328V314.109H85.8906C87.2109 314.109 88.2813 313.039 88.2813 311.719C88.2813 310.398 87.2109 309.328 85.8906 309.328H83.5Z" fill="#363538"/>
<path fill-rule="evenodd" clip-rule="evenodd" d="M78.7188 311.719C78.7188 313.039 79.7891 314.109 81.1094 314.109H83.5V309.328H81.1094C79.7891 309.328 78.7188 310.398 78.7188 311.719Z" fill="#363538"/>
<path fill-rule="evenodd" clip-rule="evenodd" d="M78.7188 316.5C78.7188 317.82 79.7891 318.891 81.1094 318.891H83.5V314.109H81.1094C79.7891 314.109 78.7188 315.18 78.7188 316.5Z" fill="#363538"/>
<circle cx="259.5" cy="33.5" r="26.5" fill="url(#paint4_radial_574_1552)" fill-opacity="0.5"/>
<circle cx="260" cy="34" r="16" fill="white"/>
<path d="M252.375 26.375V34.45C252.375 35.7801 252.375 36.4452 252.634 36.9532C252.862 37.4001 253.225 37.7634 253.672 37.9911C254.18 38.25 254.845 38.25 256.175 38.25H261.875M261.875 38.25C261.875 39.5617 262.938 40.625 264.25 40.625C265.562 40.625 266.625 39.5617 266.625 38.25C266.625 36.9383 265.562 35.875 264.25 35.875C262.938 35.875 261.875 36.9383 261.875 38.25ZM252.375 30.3333L261.875 30.3333M261.875 30.3333C261.875 31.645 262.938 32.7083 264.25 32.7083C265.562 32.7083 266.625 31.645 266.625 30.3333C266.625 29.0217 265.562 27.9583 264.25 27.9583C262.938 27.9583 261.875 29.0217 261.875 30.3333Z" stroke="#363537" stroke-width="1.58333" stroke-linecap="round" stroke-linejoin="round"/>
<circle cx="93.5" cy="68.5" r="26.5" fill="url(#paint5_radial_574_1552)" fill-opacity="0.5"/>
<circle cx="94" cy="69" r="16" fill="white"/>
<path d="M100.625 62.9583C100.625 64.27 97.435 65.3333 93.5 65.3333C89.565 65.3333 86.375 64.27 86.375 62.9583M100.625 62.9583C100.625 61.6466 97.435 60.5833 93.5 60.5833C89.565 60.5833 86.375 61.6466 86.375 62.9583M100.625 62.9583V74.0416C100.625 75.3558 97.4583 76.4166 93.5 76.4166C89.5417 76.4166 86.375 75.3558 86.375 74.0416V62.9583M100.625 66.6951C100.625 68.0093 97.4583 69.0701 93.5 69.0701C89.5417 69.0701 86.375 68.0093 86.375 66.6951M100.625 70.4316C100.625 71.7458 97.4583 72.8066 93.5 72.8066C89.5417 72.8066 86.375 71.7458 86.375 70.4316" stroke="#363538" stroke-width="1.58333" stroke-linecap="round" stroke-linejoin="round"/>
<circle cx="423.5" cy="92.5" r="26.5" fill="url(#paint6_radial_574_1552)" fill-opacity="0.5"/>
<circle cx="424" cy="93" r="16" fill="white"/>
<path d="M421.5 85.9167V84.6667M418.217 87.2172L417.333 86.3334M418.217 93.8334L417.333 94.7172M424.833 87.2172L425.717 86.3334M416.917 90.5H415.667M427.22 96.4913L425.144 100.348C424.907 100.788 424.788 101.008 424.645 101.064C424.522 101.112 424.382 101.099 424.27 101.027C424.141 100.945 424.067 100.706 423.92 100.228L421.038 90.8711C420.917 90.4804 420.857 90.2851 420.906 90.1532C420.948 90.0383 421.038 89.9478 421.153 89.9056C421.285 89.8572 421.481 89.9174 421.871 90.0377L431.228 92.9199C431.706 93.0672 431.945 93.1408 432.027 93.27C432.099 93.3822 432.112 93.5216 432.064 93.6455C432.008 93.7882 431.788 93.9068 431.348 94.144L427.491 96.2204C427.426 96.2557 427.393 96.2733 427.365 96.2959C427.339 96.316 427.316 96.339 427.296 96.3645C427.273 96.3931 427.256 96.4259 427.22 96.4913Z" stroke="#363537" stroke-width="1.66667" stroke-linecap="round" stroke-linejoin="round"/>
<circle cx="301.5" cy="128.5" r="26.5" fill="url(#paint7_linear_574_1552)" fill-opacity="0.5"/>
<circle cx="302" cy="129" r="16" fill="white"/>
<g clip-path="url(#clip0_574_1552)">
<path d="M307.833 128.5C307.833 131.998 304.998 134.833 301.5 134.833M307.833 128.5C307.833 125.002 304.998 122.167 301.5 122.167M307.833 128.5H295.167M301.5 134.833C298.002 134.833 295.167 131.998 295.167 128.5M301.5 134.833C303.084 133.099 303.985 130.848 304.034 128.5C303.985 126.152 303.084 123.901 301.5 122.167M301.5 134.833C299.916 133.099 299.016 130.848 298.967 128.5C299.016 126.152 299.916 123.901 301.5 122.167M295.167 128.5C295.167 125.002 298.002 122.167 301.5 122.167M296.75 134.833C296.75 135.708 296.041 136.417 295.167 136.417C294.292 136.417 293.583 135.708 293.583 134.833C293.583 133.959 294.292 133.25 295.167 133.25C296.041 133.25 296.75 133.959 296.75 134.833ZM309.417 134.833C309.417 135.708 308.708 136.417 307.833 136.417C306.959 136.417 306.25 135.708 306.25 134.833C306.25 133.959 306.959 133.25 307.833 133.25C308.708 133.25 309.417 133.959 309.417 134.833ZM296.75 122.167C296.75 123.041 296.041 123.75 295.167 123.75C294.292 123.75 293.583 123.041 293.583 122.167C293.583 121.292 294.292 120.583 295.167 120.583C296.041 120.583 296.75 121.292 296.75 122.167ZM309.417 122.167C309.417 123.041 308.708 123.75 307.833 123.75C306.959 123.75 306.25 123.041 306.25 122.167C306.25 121.292 306.959 120.583 307.833 120.583C308.708 120.583 309.417 121.292 309.417 122.167Z" stroke="#363537" stroke-width="1.58333" stroke-linecap="round" stroke-linejoin="round"/>
</g>
<circle cx="204.5" cy="368.5" r="26.5" fill="url(#paint8_radial_574_1552)" fill-opacity="0.5"/>
<circle cx="205" cy="369" r="16" fill="white"/>
<g clip-path="url(#clip1_574_1552)">
<path d="M198.563 376.417V372.458M198.563 364.542V360.583M196.583 362.563H200.542M196.583 374.438H200.542M205.292 361.375L203.919 364.945C203.696 365.525 203.584 365.815 203.41 366.059C203.256 366.276 203.067 366.465 202.851 366.619C202.607 366.792 202.317 366.904 201.736 367.127L198.167 368.5L201.736 369.873C202.317 370.096 202.607 370.208 202.851 370.381C203.067 370.535 203.256 370.724 203.41 370.941C203.584 371.185 203.696 371.475 203.919 372.055L205.292 375.625L206.665 372.055C206.888 371.475 206.999 371.185 207.173 370.941C207.327 370.724 207.516 370.535 207.732 370.381C207.976 370.208 208.267 370.096 208.847 369.873L212.417 368.5L208.847 367.127C208.267 366.904 207.976 366.792 207.732 366.619C207.516 366.465 207.327 366.276 207.173 366.059C206.999 365.815 206.888 365.525 206.665 364.945L205.292 361.375Z" stroke="#363538" stroke-width="1.58333" stroke-linecap="round" stroke-linejoin="round"/>
</g>
<circle cx="158.5" cy="451.5" r="26.5" fill="url(#paint9_radial_574_1552)" fill-opacity="0.5"/>
<circle cx="159" cy="452" r="16" fill="white"/>
<path fill-rule="evenodd" clip-rule="evenodd" d="M153.073 452.214C152.982 452.396 152.976 452.608 153.056 452.795L155.99 459.641C156.044 459.768 156.169 459.85 156.307 459.85H162.151C162.29 459.85 162.415 459.768 162.469 459.641L165.403 452.795C165.483 452.608 165.477 452.396 165.386 452.214L160.279 442V450.682C160.906 451.045 161.329 451.723 161.329 452.501C161.329 453.66 160.389 454.601 159.229 454.601C158.069 454.601 157.129 453.66 157.129 452.501C157.129 451.723 157.551 451.045 158.179 450.682V442.002L153.073 452.214Z" fill="#363538"/>
<path d="M156.079 461.591C156.079 461.21 156.388 460.9 156.77 460.9H161.688C162.069 460.9 162.379 461.21 162.379 461.591V463H156.079V461.591Z" fill="#363538"/>
<circle cx="322.5" cy="415.5" r="26.5" fill="url(#paint10_radial_574_1552)" fill-opacity="0.5"/>
<circle cx="323" cy="416" r="16" fill="white"/>
<path d="M322.5 419.854H322.508M319.492 423.417H325.508C326.395 423.417 326.838 423.417 327.177 423.244C327.475 423.092 327.717 422.85 327.869 422.552C328.042 422.213 328.042 421.77 328.042 420.883V410.117C328.042 409.23 328.042 408.787 327.869 408.448C327.717 408.15 327.475 407.908 327.177 407.756C326.838 407.583 326.395 407.583 325.508 407.583H319.492C318.605 407.583 318.161 407.583 317.823 407.756C317.525 407.908 317.283 408.15 317.131 408.448C316.958 408.787 316.958 409.23 316.958 410.117V420.883C316.958 421.77 316.958 422.213 317.131 422.552C317.283 422.85 317.525 423.092 317.823 423.244C318.161 423.417 318.605 423.417 319.492 423.417ZM322.896 419.854C322.896 420.073 322.719 420.25 322.5 420.25C322.281 420.25 322.104 420.073 322.104 419.854C322.104 419.636 322.281 419.458 322.5 419.458C322.719 419.458 322.896 419.636 322.896 419.854Z" stroke="#363537" stroke-width="1.58333" stroke-linecap="round" stroke-linejoin="round"/>
<circle cx="370.5" cy="299.5" r="26.5" fill="url(#paint11_radial_574_1552)" fill-opacity="0.5"/>
<circle cx="371" cy="300" r="16" fill="white"/>
<path d="M377.75 303V296.4C377.75 295.56 377.75 295.14 377.587 294.819C377.443 294.537 377.213 294.307 376.931 294.163C376.61 294 376.19 294 375.35 294H366.65C365.81 294 365.39 294 365.069 294.163C364.787 294.307 364.557 294.537 364.413 294.819C364.25 295.14 364.25 295.56 364.25 296.4V303M365.5 306H376.5C376.965 306 377.197 306 377.388 305.949C377.906 305.81 378.31 305.406 378.449 304.888C378.5 304.697 378.5 304.465 378.5 304C378.5 303.768 378.5 303.651 378.474 303.556C378.405 303.297 378.203 303.095 377.944 303.026C377.849 303 377.732 303 377.5 303H364.5C364.268 303 364.151 303 364.056 303.026C363.797 303.095 363.595 303.297 363.526 303.556C363.5 303.651 363.5 303.768 363.5 304C363.5 304.465 363.5 304.697 363.551 304.888C363.69 305.406 364.094 305.81 364.612 305.949C364.803 306 365.035 306 365.5 306Z" stroke="#363537" stroke-width="1.5" stroke-linecap="round" stroke-linejoin="round"/>
<circle cx="454.5" cy="356.5" r="26.5" fill="url(#paint12_radial_574_1552)" fill-opacity="0.5"/>
<circle cx="455" cy="357" r="16" fill="white"/>
<g clip-path="url(#clip2_574_1552)">
<path d="M452.125 356.5L453.708 358.083L457.271 354.521M452.285 363.309C452.544 363.275 452.806 363.345 453.013 363.504L453.966 364.235C454.28 364.477 454.718 364.477 455.032 364.235L456.021 363.476C456.206 363.335 456.439 363.272 456.669 363.303L457.906 363.466C458.299 363.518 458.678 363.298 458.83 362.932L459.306 361.781C459.395 361.566 459.566 361.395 459.781 361.306L460.932 360.83C461.298 360.679 461.517 360.299 461.466 359.906L461.309 358.714C461.275 358.454 461.345 358.192 461.504 357.986L462.235 357.033C462.477 356.718 462.477 356.28 462.235 355.966L461.476 354.977C461.335 354.793 461.272 354.56 461.303 354.329L461.466 353.092C461.517 352.699 461.298 352.32 460.932 352.168L459.781 351.692C459.566 351.603 459.395 351.433 459.306 351.217L458.83 350.067C458.679 349.7 458.299 349.481 457.906 349.533L456.669 349.695C456.439 349.727 456.206 349.665 456.022 349.524L455.033 348.765C454.718 348.523 454.28 348.523 453.966 348.765L452.978 349.524C452.793 349.665 452.56 349.727 452.33 349.697L451.093 349.534C450.7 349.483 450.321 349.702 450.169 350.068L449.694 351.219C449.604 351.433 449.433 351.604 449.219 351.694L448.068 352.169C447.701 352.321 447.482 352.7 447.534 353.093L447.697 354.33C447.727 354.56 447.664 354.794 447.524 354.977L446.765 355.966C446.523 356.281 446.523 356.719 446.765 357.033L447.524 358.022C447.665 358.206 447.728 358.44 447.697 358.67L447.534 359.907C447.482 360.3 447.701 360.679 448.068 360.831L449.219 361.307C449.434 361.396 449.605 361.567 449.694 361.782L450.169 362.933C450.321 363.299 450.701 363.518 451.094 363.466L452.285 363.309Z" stroke="#363537" stroke-width="1.58333" stroke-linecap="round" stroke-linejoin="round"/>
</g>
<circle cx="466.5" cy="244.5" r="26.5" fill="url(#paint13_radial_574_1552)" fill-opacity="0.5"/>
<circle cx="467" cy="245" r="16" fill="white"/>
<g clip-path="url(#clip3_574_1552)">
<path d="M465.917 249.98V251.833C465.917 252.708 466.625 253.417 467.5 253.417C468.374 253.417 469.083 252.708 469.083 251.833V249.98M467.5 237.583V238.375M460.375 245.5H459.583M462.354 240.354L461.879 239.879M472.646 240.354L473.121 239.879M475.417 245.5H474.625M472.25 245.5C472.25 248.123 470.123 250.25 467.5 250.25C464.877 250.25 462.75 248.123 462.75 245.5C462.75 242.877 464.877 240.75 467.5 240.75C470.123 240.75 472.25 242.877 472.25 245.5Z" stroke="#363537" stroke-width="1.58333" stroke-linecap="round" stroke-linejoin="round"/>
</g>
<defs>
<radialGradient id="paint0_radial_574_1552" cx="0" cy="0" r="1" gradientUnits="userSpaceOnUse" gradientTransform="translate(249.75 249.75) rotate(90) scale(249.75 249.75)">
<stop/>
<stop offset="1" stop-opacity="0"/>
</radialGradient>
<linearGradient id="paint1_linear_574_1552" x1="41.5" y1="116" x2="45.5" y2="205" gradientUnits="userSpaceOnUse">
<stop offset="1" stop-color="#413830"/>
<stop offset="1" stop-color="#32263E"/>
</linearGradient>
<linearGradient id="paint2_linear_574_1552" x1="149.5" y1="120" x2="153.5" y2="209" gradientUnits="userSpaceOnUse">
<stop offset="1" stop-color="#413830"/>
<stop offset="1" stop-color="#32263E"/>
</linearGradient>
<linearGradient id="paint3_linear_574_1552" x1="81.5" y1="272" x2="85.5" y2="361" gradientUnits="userSpaceOnUse">
<stop offset="1" stop-color="#413830"/>
<stop offset="1" stop-color="#32263E"/>
</linearGradient>
<radialGradient id="paint4_radial_574_1552" cx="0" cy="0" r="1" gradientUnits="userSpaceOnUse" gradientTransform="translate(259.5 33.5) rotate(87.4266) scale(44.5449 46.0965)">
<stop stop-color="#999999" stop-opacity="0.5"/>
<stop offset="0.837408" stop-color="white" stop-opacity="0.06"/>
</radialGradient>
<radialGradient id="paint5_radial_574_1552" cx="0" cy="0" r="1" gradientUnits="userSpaceOnUse" gradientTransform="translate(93.5 68.5) rotate(87.4266) scale(44.5449 46.0965)">
<stop stop-color="#999999" stop-opacity="0.5"/>
<stop offset="0.837408" stop-color="white" stop-opacity="0.06"/>
</radialGradient>
<radialGradient id="paint6_radial_574_1552" cx="0" cy="0" r="1" gradientUnits="userSpaceOnUse" gradientTransform="translate(423.5 92.5) rotate(87.4266) scale(44.5449 46.0965)">
<stop stop-color="#999999" stop-opacity="0.5"/>
<stop offset="0.837408" stop-color="white" stop-opacity="0.06"/>
</radialGradient>
<linearGradient id="paint7_linear_574_1552" x1="299.5" y1="84" x2="303.5" y2="173" gradientUnits="userSpaceOnUse">
<stop offset="1" stop-color="#413830"/>
<stop offset="1" stop-color="#32263E"/>
</linearGradient>
<radialGradient id="paint8_radial_574_1552" cx="0" cy="0" r="1" gradientUnits="userSpaceOnUse" gradientTransform="translate(204.5 368.5) rotate(87.4266) scale(44.5449 46.0965)">
<stop stop-color="#999999" stop-opacity="0.5"/>
<stop offset="0.837408" stop-color="white" stop-opacity="0.06"/>
</radialGradient>
<radialGradient id="paint9_radial_574_1552" cx="0" cy="0" r="1" gradientUnits="userSpaceOnUse" gradientTransform="translate(158.5 451.5) rotate(87.4266) scale(44.5449 46.0965)">
<stop stop-color="#999999" stop-opacity="0.5"/>
<stop offset="0.837408" stop-color="white" stop-opacity="0.06"/>
</radialGradient>
<radialGradient id="paint10_radial_574_1552" cx="0" cy="0" r="1" gradientUnits="userSpaceOnUse" gradientTransform="translate(322.5 415.5) rotate(87.4266) scale(44.5449 46.0965)">
<stop stop-color="#999999" stop-opacity="0.5"/>
<stop offset="0.837408" stop-color="white" stop-opacity="0.06"/>
</radialGradient>
<radialGradient id="paint11_radial_574_1552" cx="0" cy="0" r="1" gradientUnits="userSpaceOnUse" gradientTransform="translate(370.5 299.5) rotate(87.4266) scale(44.5449 46.0965)">
<stop stop-color="#999999" stop-opacity="0.5"/>
<stop offset="0.837408" stop-color="white" stop-opacity="0.06"/>
</radialGradient>
<radialGradient id="paint12_radial_574_1552" cx="0" cy="0" r="1" gradientUnits="userSpaceOnUse" gradientTransform="translate(454.5 356.5) rotate(87.4266) scale(44.5449 46.0965)">
<stop stop-color="#999999" stop-opacity="0.5"/>
<stop offset="0.837408" stop-color="white" stop-opacity="0.06"/>
</radialGradient>
<radialGradient id="paint13_radial_574_1552" cx="0" cy="0" r="1" gradientUnits="userSpaceOnUse" gradientTransform="translate(466.5 244.5) rotate(87.4266) scale(44.5449 46.0965)">
<stop stop-color="#999999" stop-opacity="0.5"/>
<stop offset="0.837408" stop-color="white" stop-opacity="0.06"/>
</radialGradient>
<clipPath id="clip0_574_1552">
<rect width="19" height="19" fill="white" transform="translate(292 119)"/>
</clipPath>
<clipPath id="clip1_574_1552">
<rect width="19" height="19" fill="white" transform="translate(195 359)"/>
</clipPath>
<clipPath id="clip2_574_1552">
<rect width="19" height="19" fill="white" transform="translate(445 347)"/>
</clipPath>
<clipPath id="clip3_574_1552">
<rect width="19" height="19" fill="white" transform="translate(458 236)"/>
</clipPath>
</defs>
</svg>
