<svg width="16" height="16" viewBox="0 0 16 16" fill="none" xmlns="http://www.w3.org/2000/svg">
<path d="M0.264676 5.30749H3.58535V15.9714H0.264676V5.30749ZM1.92257 1.14286e-06C2.98197 1.14286e-06 3.84304 0.861072 3.84304 1.92048C3.84304 2.97988 2.98197 3.84304 1.92327 3.84304C1.41365 3.84194 0.925204 3.63905 0.564781 3.27876C0.204357 2.91847 0.00129132 2.4301 0 1.92048C-1.50174e-07 1.6681 0.0497435 1.4182 0.146387 1.18506C0.243031 0.951919 0.38468 0.740114 0.563235 0.561754C0.741789 0.383394 0.953748 0.241977 1.18699 0.145587C1.42024 0.0491974 1.67019 -0.000274177 1.92257 1.14286e-06ZM5.65877 5.30749H8.83768V6.76496H8.88167C9.32443 5.92693 10.4055 5.04282 12.0243 5.04282C15.3806 5.04282 16 7.25171 16 10.1226V15.9721H12.6877V10.7847C12.6877 9.5486 12.6654 7.95635 10.9656 7.95635C9.24063 7.95635 8.97525 9.30418 8.97525 10.6939V15.9693H5.66365V5.3054L5.65877 5.30749Z" fill="white"/>
</svg>
