<svg width="25" height="24" viewBox="0 0 25 24" fill="none" xmlns="http://www.w3.org/2000/svg">
<path d="M0.876713 7.97517H5.86644V23.999H0.876713V7.97517ZM3.3679 1.71729e-06C4.95979 1.71729e-06 6.25365 1.29387 6.25365 2.88575C6.25365 4.47764 4.95979 5.77465 3.36895 5.77465C2.60318 5.77299 1.86924 5.46812 1.32766 4.92674C0.786076 4.38535 0.480944 3.65152 0.479004 2.88575C0.479004 2.50652 0.55375 2.13102 0.698969 1.7807C0.844188 1.43038 1.05703 1.11211 1.32533 0.844105C1.59363 0.576097 1.91213 0.3636 2.26261 0.218762C2.61309 0.0739252 2.98868 -0.000411985 3.3679 1.71729e-06ZM8.982 7.97517H13.7587V10.1652H13.8248C14.4901 8.90595 16.1145 7.57746 18.547 7.57746C23.5902 7.57746 24.521 10.8966 24.521 15.2105V24H19.5438V16.2053C19.5438 14.348 19.5103 11.9554 16.9561 11.9554C14.3642 11.9554 13.9654 13.9807 13.9654 16.0689V23.9958H8.98934V7.97202L8.982 7.97517Z" fill="#0D0C0C"/>
</svg>
