<svg width="64" height="64" viewBox="0 0 64 64" fill="none" xmlns="http://www.w3.org/2000/svg">
<rect width="64" height="64" rx="8" fill="white"/>
<path fill-rule="evenodd" clip-rule="evenodd" d="M32 48C40.8366 48 48 40.8366 48 32C48 23.1635 40.8366 16 32 16C23.1634 16 16 23.1635 16 32C16 40.8366 23.1634 48 32 48ZM36.9914 23.4535C37.2344 22.5904 36.3969 22.0801 35.632 22.625L24.9545 30.2317C24.125 30.8226 24.2555 32 25.1505 32H27.9622V31.9782H33.442L28.977 33.5537L27.0086 40.5466C26.7656 41.4096 27.603 41.9199 28.368 41.375L39.0455 33.7684C39.875 33.1774 39.7445 32 38.8495 32H34.5857L36.9914 23.4535Z" fill="#0D0C0C"/>
</svg>
