<svg width="128" height="28" viewBox="0 0 128 28" fill="none" xmlns="http://www.w3.org/2000/svg">
<path fill-rule="evenodd" clip-rule="evenodd" d="M14.0667 28C21.7987 28 28.0667 21.732 28.0667 14C28.0667 6.26802 21.7987 0 14.0667 0C6.33466 0 0.066658 6.26802 0.066658 14C0.066658 21.732 6.33466 28 14.0667 28ZM18.4342 6.52179C18.6468 5.76664 17.9139 5.32009 17.2447 5.79691L7.90184 12.4527C7.17601 12.9698 7.29018 14 8.07334 14H10.5336V13.9809H15.3284L11.4215 15.3595L9.69916 21.4782C9.48657 22.2334 10.2193 22.6799 10.8887 22.2031L20.2315 15.5473C20.9573 15.0302 20.8431 14 20.06 14H16.3291L18.4342 6.52179Z" fill="white"/>
<path d="M45.023 22.1438C43.455 22.1438 42.126 21.8601 41.0358 21.2926C39.9457 20.7102 39.1094 19.8366 38.527 18.6718C37.9596 17.4921 37.6758 15.9987 37.6758 14.1918C37.6758 11.5187 38.3254 9.52513 39.6246 8.211C40.9238 6.89687 42.7308 6.2398 45.0454 6.2398C46.3596 6.2398 47.5244 6.45633 48.5398 6.8894C49.5553 7.30753 50.3468 7.94967 50.9142 8.8158C51.4966 9.667 51.7878 10.7422 51.7878 12.0414H49.6374C49.6374 11.1454 49.4433 10.4062 49.055 9.8238C48.6817 9.2414 48.1516 8.80833 47.4646 8.5246C46.7777 8.22593 45.9713 8.0766 45.0454 8.0766C43.9702 8.0766 43.0444 8.28566 42.2678 8.7038C41.4913 9.12193 40.9014 9.77153 40.4982 10.6526C40.095 11.5187 39.8934 12.6387 39.8934 14.0126V14.483C39.8934 15.8419 40.095 16.9545 40.4982 17.8206C40.9014 18.6718 41.4838 19.299 42.2454 19.7022C43.022 20.1054 43.9553 20.307 45.0454 20.307C46.0012 20.307 46.8225 20.1651 47.5094 19.8814C48.2113 19.5977 48.7489 19.1646 49.1222 18.5822C49.5105 17.9849 49.7046 17.2382 49.7046 16.3422H51.7878C51.7878 17.6713 51.4892 18.7614 50.8918 19.6126C50.3094 20.4638 49.5105 21.0985 48.495 21.5166C47.4796 21.9347 46.3222 22.1438 45.023 22.1438ZM58.9903 22.1438C57.7956 22.1438 56.7876 21.9273 55.9663 21.4942C55.1599 21.0462 54.5402 20.3667 54.1071 19.4558C53.689 18.5449 53.4799 17.3875 53.4799 15.9838C53.4799 14.5651 53.689 13.4078 54.1071 12.5118C54.5402 11.6009 55.1599 10.9289 55.9663 10.4958C56.7876 10.0478 57.7956 9.8238 58.9903 9.8238C60.185 9.8238 61.1855 10.0478 61.9919 10.4958C62.8132 10.9289 63.433 11.6009 63.8511 12.5118C64.2692 13.4078 64.4783 14.5651 64.4783 15.9838C64.4783 17.3875 64.2692 18.5449 63.8511 19.4558C63.433 20.3667 62.8132 21.0462 61.9919 21.4942C61.1855 21.9273 60.185 22.1438 58.9903 22.1438ZM58.9903 20.4862C59.7519 20.4862 60.3866 20.3369 60.8943 20.0382C61.402 19.7395 61.7828 19.2766 62.0367 18.6494C62.3055 18.0073 62.4399 17.2009 62.4399 16.2302V15.7374C62.4399 14.7518 62.3055 13.9454 62.0367 13.3182C61.7828 12.691 61.402 12.2281 60.8943 11.9294C60.3866 11.6307 59.7519 11.4814 58.9903 11.4814C58.2287 11.4814 57.5866 11.6307 57.0639 11.9294C56.5562 12.2281 56.1754 12.691 55.9215 13.3182C55.6676 13.9454 55.5407 14.7518 55.5407 15.7374V16.2302C55.5407 17.2009 55.6676 18.0073 55.9215 18.6494C56.1754 19.2766 56.5562 19.7395 57.0639 20.0382C57.5866 20.3369 58.2287 20.4862 58.9903 20.4862ZM70.7125 22.1438C69.7418 22.1438 68.9056 21.9273 68.2037 21.4942C67.5168 21.0611 66.9792 20.3891 66.5909 19.4782C66.2176 18.5523 66.0309 17.3577 66.0309 15.8942C66.0309 14.5054 66.225 13.363 66.6133 12.467C67.0016 11.571 67.5392 10.9065 68.2261 10.4734C68.913 10.0403 69.712 9.8238 70.6229 9.8238C71.1456 9.8238 71.6309 9.88353 72.0789 10.003C72.5269 10.1225 72.9226 10.3091 73.2661 10.563C73.6245 10.8169 73.9381 11.1529 74.2069 11.571H74.3413V5.6798H76.3125V21.875H74.7221L74.5429 20.195H74.3861C73.9829 20.8521 73.4602 21.3449 72.8181 21.6734C72.176 21.987 71.4741 22.1438 70.7125 22.1438ZM71.1829 20.419C71.9296 20.419 72.5344 20.2547 72.9973 19.9262C73.4602 19.5977 73.7962 19.1198 74.0053 18.4926C74.2293 17.8654 74.3413 17.0889 74.3413 16.163V15.8046C74.3413 14.9982 74.2592 14.3187 74.0949 13.7662C73.9306 13.2137 73.7066 12.7731 73.4229 12.4446C73.1392 12.1161 72.8106 11.8846 72.4373 11.7502C72.064 11.6158 71.6682 11.5486 71.2501 11.5486C70.5184 11.5486 69.921 11.6979 69.4581 11.9966C68.9952 12.2803 68.6517 12.7358 68.4277 13.363C68.2037 13.9753 68.0917 14.7742 68.0917 15.7598V16.2302C68.0917 17.2457 68.2112 18.067 68.4501 18.6942C68.689 19.3065 69.0325 19.747 69.4805 20.0158C69.9434 20.2846 70.5109 20.419 71.1829 20.419ZM83.8923 22.1438C82.7275 22.1438 81.7419 21.9273 80.9355 21.4942C80.144 21.0462 79.5392 20.3667 79.1211 19.4558C78.7179 18.5449 78.5163 17.3875 78.5163 15.9838C78.5163 14.5651 78.7179 13.4078 79.1211 12.5118C79.5392 11.6009 80.1515 10.9289 80.9579 10.4958C81.7643 10.0478 82.7723 9.8238 83.9819 9.8238C85.0869 9.8238 86.0128 10.0403 86.7595 10.4734C87.5061 10.8915 88.0661 11.5262 88.4395 12.3774C88.8277 13.2137 89.0219 14.2665 89.0219 15.5358V16.4766H80.5547C80.5845 17.4174 80.7189 18.1939 80.9579 18.8062C81.2117 19.4035 81.5851 19.8441 82.0779 20.1278C82.5707 20.3966 83.1904 20.531 83.9371 20.531C84.4448 20.531 84.8853 20.4713 85.2587 20.3518C85.6469 20.2174 85.968 20.0307 86.2219 19.7918C86.4907 19.5529 86.6923 19.2691 86.8267 18.9406C86.9611 18.6121 87.0357 18.2537 87.0507 17.8654H88.9771C88.9621 18.4926 88.8427 19.075 88.6187 19.6126C88.3947 20.1353 88.0661 20.5833 87.6331 20.9566C87.2 21.3299 86.6699 21.6211 86.0427 21.8302C85.4155 22.0393 84.6987 22.1438 83.8923 22.1438ZM80.5995 14.9982H86.9835C86.9835 14.3411 86.9088 13.7886 86.7595 13.3406C86.6101 12.8926 86.3936 12.5267 86.1099 12.243C85.8411 11.9593 85.52 11.7577 85.1467 11.6382C84.7883 11.5038 84.3776 11.4366 83.9147 11.4366C83.2277 11.4366 82.6453 11.5635 82.1675 11.8174C81.6896 12.0713 81.3237 12.4595 81.0699 12.9822C80.816 13.5049 80.6592 14.1769 80.5995 14.9982ZM91.6169 21.875V6.5086H93.7449V20.0158H101.383V21.875H91.6169ZM105.978 22.1438C105.545 22.1438 105.112 22.0915 104.679 21.987C104.246 21.8825 103.843 21.7107 103.47 21.4718C103.096 21.2329 102.798 20.9043 102.574 20.4862C102.35 20.0531 102.238 19.5155 102.238 18.8734C102.238 18.067 102.432 17.4025 102.82 16.8798C103.208 16.3571 103.746 15.9539 104.433 15.6702C105.135 15.3715 105.963 15.1699 106.919 15.0654C107.875 14.9459 108.913 14.8862 110.033 14.8862V13.5422C110.033 13.1091 109.958 12.7358 109.809 12.4222C109.659 12.1086 109.391 11.8697 109.002 11.7054C108.629 11.5262 108.091 11.4366 107.39 11.4366C106.718 11.4366 106.18 11.5262 105.777 11.7054C105.388 11.8697 105.112 12.0862 104.948 12.355C104.799 12.6238 104.724 12.9225 104.724 13.251V13.587H102.82C102.805 13.5123 102.798 13.4377 102.798 13.363C102.798 13.2883 102.798 13.1987 102.798 13.0942C102.798 12.3774 102.992 11.7801 103.38 11.3022C103.783 10.8094 104.343 10.4435 105.06 10.2046C105.777 9.95073 106.598 9.8238 107.524 9.8238C108.51 9.8238 109.331 9.96566 109.988 10.2494C110.66 10.5331 111.16 10.9363 111.489 11.459C111.832 11.9817 112.004 12.6089 112.004 13.3406V19.7246C112.004 20.0083 112.071 20.2099 112.206 20.3294C112.34 20.4339 112.504 20.4862 112.698 20.4862H113.572V21.7854C113.363 21.875 113.131 21.9497 112.878 22.0094C112.624 22.0841 112.332 22.1214 112.004 22.1214C111.616 22.1214 111.295 22.0393 111.041 21.875C110.787 21.7257 110.593 21.5166 110.458 21.2478C110.324 20.9641 110.234 20.6505 110.19 20.307H110.033C109.764 20.6803 109.42 21.0089 109.002 21.2926C108.599 21.5614 108.144 21.7705 107.636 21.9198C107.128 22.0691 106.576 22.1438 105.978 22.1438ZM106.471 20.4862C106.949 20.4862 107.397 20.4115 107.815 20.2622C108.248 20.1129 108.629 19.9038 108.958 19.635C109.286 19.3513 109.547 19.0153 109.742 18.627C109.936 18.2387 110.033 17.8131 110.033 17.3502V16.3646C108.823 16.3646 107.793 16.4318 106.942 16.5662C106.09 16.7006 105.433 16.9395 104.97 17.283C104.522 17.6265 104.298 18.1118 104.298 18.739C104.298 19.1422 104.388 19.4707 104.567 19.7246C104.746 19.9785 105 20.1726 105.329 20.307C105.657 20.4265 106.038 20.4862 106.471 20.4862ZM120.604 22.1438C119.812 22.1438 119.103 21.987 118.476 21.6734C117.849 21.3449 117.333 20.8521 116.93 20.195H116.773L116.572 21.875H115.004V5.6798H116.975V11.571H117.109C117.378 11.1529 117.692 10.8169 118.05 10.563C118.409 10.3091 118.812 10.1225 119.26 10.003C119.708 9.88353 120.186 9.8238 120.693 9.8238C121.604 9.8238 122.403 10.0403 123.09 10.4734C123.777 10.9065 124.307 11.571 124.681 12.467C125.069 13.363 125.263 14.5054 125.263 15.8942C125.263 17.3577 125.076 18.5523 124.703 19.4782C124.33 20.3891 123.8 21.0611 123.113 21.4942C122.426 21.9273 121.589 22.1438 120.604 22.1438ZM120.133 20.419C120.805 20.419 121.365 20.2846 121.813 20.0158C122.276 19.747 122.627 19.3065 122.866 18.6942C123.105 18.067 123.225 17.2457 123.225 16.2302V15.7598C123.225 14.7742 123.113 13.9753 122.889 13.363C122.665 12.7358 122.321 12.2803 121.858 11.9966C121.395 11.6979 120.798 11.5486 120.066 11.5486C119.648 11.5486 119.252 11.6158 118.879 11.7502C118.506 11.8846 118.17 12.1161 117.871 12.4446C117.587 12.7731 117.363 13.2137 117.199 13.7662C117.05 14.3187 116.975 14.9982 116.975 15.8046V16.163C116.975 17.0889 117.08 17.8654 117.289 18.4926C117.513 19.1198 117.856 19.5977 118.319 19.9262C118.797 20.2547 119.402 20.419 120.133 20.419Z" fill="#F8FAFC"/>
</svg>
