<svg width="195" height="47" viewBox="0 0 195 47" fill="none" xmlns="http://www.w3.org/2000/svg">
<g filter="url(#filter0_ddiii_729_4491)">
<g clip-path="url(#clip0_729_4491)">
<rect x="3" width="41" height="41" rx="10.25" fill="#939888"/>
<rect width="41" height="41" transform="translate(3)" fill="url(#paint0_linear_729_4491)"/>
<g filter="url(#filter1_d_729_4491)">
<mask id="mask0_729_4491" style="mask-type:luminance" maskUnits="userSpaceOnUse" x="18" y="19" width="19" height="12">
<path d="M18.8174 19.6499H36.3267V30.6258H18.8174V19.6499Z" fill="white"/>
</mask>
<g mask="url(#mask0_729_4491)">
<path d="M36.2985 19.6755C36.2171 19.8888 36.1297 20.1002 36.0418 20.3119C35.9496 20.5212 35.8552 20.7296 35.7584 20.9372C35.66 21.1441 35.5543 21.3468 35.4512 21.552C35.4003 21.6551 35.3423 21.7537 35.2878 21.8549L35.1215 22.1566C34.6644 22.9591 34.1526 23.7252 33.5861 24.4543C32.4492 25.9126 31.085 27.2193 29.5186 28.248C28.7331 28.7663 27.905 29.2037 27.0343 29.5602L26.7062 29.6872C26.5964 29.7284 26.4883 29.7727 26.3764 29.8091C26.2647 29.8457 26.1545 29.8848 26.0431 29.9207C25.9315 29.9566 25.8206 29.9946 25.7071 30.024L25.3684 30.1181L25.1993 30.1647C25.1422 30.1798 25.0853 30.192 25.0281 30.2046L24.6859 30.2801L24.5147 30.3174L24.3419 30.3476C22.5034 30.6808 20.6074 30.6186 18.8396 30.1537C19.068 30.1472 19.2961 30.1467 19.5242 30.1453C19.5814 30.1453 19.6383 30.1432 19.6955 30.1407L19.8664 30.1337C19.9805 30.1286 20.0924 30.1256 20.2051 30.1219C20.3178 30.1178 20.4303 30.1078 20.5422 30.1011L20.8784 30.0779C20.9356 30.0731 20.9903 30.0712 21.0459 30.0652L21.2131 30.0474L21.5466 30.0113C22.4279 29.9102 23.2959 29.7419 24.1509 29.5062C25.85 29.0389 27.4515 28.2939 28.9176 27.3318C30.3837 26.3697 31.7179 25.1969 32.9324 23.8964C33.5413 23.2471 34.12 22.5638 34.6771 21.8573L35.091 21.3231L35.4979 20.7811C35.6295 20.5972 35.7649 20.4149 35.8989 20.231C36.0332 20.0468 36.1615 19.8592 36.2985 19.6755Z" fill="white"/>
</g>
<mask id="mask1_729_4491" style="mask-type:luminance" maskUnits="userSpaceOnUse" x="21" y="9" width="15" height="18">
<path d="M21.8546 9.30884H35.3847V26.415H21.8546V9.30884Z" fill="white"/>
</mask>
<g mask="url(#mask1_729_4491)">
<path d="M28.5088 26.2509C28.8655 25.9789 29.222 25.7092 29.554 25.411C29.8932 25.1222 30.21 24.8099 30.5236 24.4982C31.1392 23.8621 31.699 23.1801 32.2036 22.4529C32.4476 22.0872 32.6884 21.7197 32.9001 21.336C33.1188 20.9563 33.3126 20.564 33.4973 20.1687L33.6268 19.8683L33.6912 19.7184C33.7123 19.6685 33.7306 19.6189 33.7503 19.5692C33.77 19.5196 33.7896 19.4703 33.8074 19.4198L33.86 19.2688C33.897 19.1691 33.9269 19.0661 33.9584 18.9641C34.0814 18.5529 34.1755 18.1352 34.2416 17.7111C34.3082 17.2842 34.3519 16.8552 34.3724 16.4235C34.3947 15.991 34.3999 15.5563 34.3883 15.1194C34.3645 14.2463 34.2882 13.3694 34.186 12.4898C34.1351 12.0492 34.0811 11.6078 34.0242 11.1655L33.9385 10.5003L33.9169 10.3337L33.9059 10.2528C33.9029 10.2325 33.9002 10.218 33.8983 10.2104C33.8964 10.2026 33.8956 10.2023 33.8983 10.2104C33.9056 10.2309 33.9161 10.2498 33.9291 10.2673C33.9533 10.3002 33.9827 10.3274 34.0172 10.349C34.0469 10.3676 34.0784 10.3808 34.1124 10.3887C34.158 10.397 34.1518 10.3908 34.1194 10.3962L33.9652 10.4181L33.6343 10.4647C33.4138 10.4963 33.194 10.5286 32.975 10.562C32.5371 10.6289 32.1014 10.7006 31.6696 10.7824C30.8051 10.9409 29.9536 11.1359 29.1309 11.3988C28.9251 11.4635 28.721 11.5336 28.5196 11.6072L28.2213 11.7213C28.1712 11.7396 28.1221 11.7606 28.0736 11.7822L27.9269 11.8456L27.7804 11.9092C27.7314 11.9305 27.6842 11.9551 27.6378 11.978C27.5421 12.0246 27.4458 12.0694 27.3509 12.1177C27.1643 12.2191 26.9747 12.3156 26.7943 12.427L26.6571 12.5076C26.611 12.534 26.5678 12.5648 26.5231 12.5931C26.4346 12.6502 26.3451 12.7074 26.2572 12.7678L26.0005 12.9533L25.936 12.9997L25.8737 13.049L25.7497 13.1477L25.624 13.2478C25.5822 13.2807 25.5442 13.3168 25.5038 13.3513L25.3849 13.456C25.3455 13.491 25.304 13.5242 25.2659 13.5608L25.0378 13.7809C25.0189 13.7992 24.9993 13.817 24.9807 13.8359L24.9265 13.8931L24.8181 14.0085L24.7091 14.1242C24.6735 14.163 24.6409 14.2045 24.6064 14.2444C24.5387 14.3256 24.468 14.4043 24.4022 14.4874L24.2103 14.7414C24.1943 14.7624 24.1779 14.7832 24.1625 14.8045L24.1178 14.8703L24.0277 15.0011L23.9374 15.1321C23.9074 15.1758 23.8802 15.2219 23.8519 15.2667C23.7969 15.3573 23.74 15.4473 23.6858 15.5385C23.5857 15.7256 23.4787 15.9092 23.3908 16.1029C23.2077 16.4877 23.0556 16.8843 22.9345 17.2931C22.8145 17.7049 22.7247 18.1234 22.6646 18.5481C22.605 18.9779 22.5718 19.4096 22.5656 19.8435C22.557 20.2795 22.5743 20.7174 22.6093 21.1556C22.6778 22.0333 22.8218 22.911 22.9963 23.7852C23.0845 24.2221 23.1799 24.6589 23.2794 25.0952L23.4293 25.7513C23.4808 25.9692 23.5315 26.1878 23.5812 26.4073L23.4628 26.0937L23.3471 25.778L23.119 25.1443C22.9715 24.7201 22.8296 24.2938 22.6991 23.8632C22.4365 23.0019 22.2156 22.1231 22.073 21.2225C22.0018 20.77 21.9538 20.3148 21.929 19.8575C21.9053 19.3953 21.9112 18.9337 21.9473 18.4723C21.9837 18.0063 22.056 17.5458 22.1644 17.0911C22.2728 16.6325 22.4187 16.1862 22.6023 15.752C22.6913 15.5334 22.7989 15.3244 22.9016 15.1132C22.9569 15.0094 23.0157 14.9072 23.0729 14.8039C23.1014 14.753 23.1298 14.7004 23.1602 14.6505L23.2541 14.5009L23.3482 14.3512L23.3975 14.2746L23.4485 14.2021L23.6532 13.9136C23.7235 13.8186 23.7988 13.7275 23.8713 13.6345C23.9082 13.5886 23.9438 13.5412 23.9821 13.4961L24.0989 13.3632L24.2162 13.23L24.2744 13.1636C24.2944 13.1421 24.3154 13.121 24.3359 13.0997L24.5829 12.846C24.667 12.7629 24.7539 12.6842 24.8415 12.6039C24.8855 12.5645 24.9273 12.5227 24.9728 12.4847L25.1085 12.3706L25.2444 12.2565L25.3126 12.1996L25.3827 12.146L25.665 11.934C25.7608 11.8655 25.8586 11.8 25.9557 11.7342C26.0045 11.7016 26.0517 11.6663 26.1021 11.6355L26.2521 11.542L26.4017 11.4489L26.4772 11.4026L26.5538 11.3591L26.862 11.1882C26.9658 11.1334 27.0713 11.0819 27.1756 11.0288C27.2285 11.0029 27.2802 10.9754 27.3336 10.9509L27.4941 10.8786L27.6543 10.8061C27.7076 10.7818 27.7613 10.7581 27.8158 10.7368L28.1418 10.6057C28.3594 10.5221 28.5781 10.4439 28.7978 10.3711C29.6788 10.0834 30.5751 9.87524 31.4704 9.70698C31.9185 9.62474 32.3667 9.55355 32.8135 9.48721C33.037 9.45405 33.2603 9.42223 33.4833 9.39176L33.8174 9.34618L33.901 9.33459L33.9425 9.32893L33.9954 9.32246C34.11 9.30762 34.2241 9.31113 34.3376 9.33324C34.4271 9.35212 34.5107 9.38555 34.5884 9.43382C34.6709 9.48559 34.741 9.55058 34.7984 9.62905C34.8437 9.69134 34.8799 9.75848 34.9065 9.83075C34.9262 9.8836 34.9416 9.93753 34.9527 9.99308C34.9621 10.0403 34.9678 10.081 34.9723 10.1163L34.9823 10.2031L35.0015 10.3695L35.0783 11.0369C35.1293 11.4829 35.1797 11.9308 35.221 12.3817C35.3029 13.2823 35.3636 14.1921 35.355 15.1097C35.3507 15.5684 35.3326 16.0287 35.2897 16.4887C35.2477 16.9506 35.1813 17.4093 35.0902 17.8642C34.9977 18.3229 34.8718 18.7721 34.7127 19.2119C34.6719 19.3222 34.6331 19.4323 34.5873 19.5404L34.5204 19.703C34.4972 19.7566 34.4724 19.8098 34.4487 19.8632C34.4247 19.9165 34.4009 19.9707 34.3753 20.0228L34.2974 20.1765L34.1418 20.4839C33.7104 21.2937 33.2075 22.0565 32.6336 22.7724C32.059 23.4795 31.4251 24.1285 30.7318 24.7193C30.0404 25.302 29.2997 25.8128 28.5088 26.2509Z" fill="white"/>
</g>
<mask id="mask2_729_4491" style="mask-type:luminance" maskUnits="userSpaceOnUse" x="10" y="18" width="16" height="12">
<path d="M10.0259 18.5454H25.5133V29.0381H10.0259V18.5454Z" fill="white"/>
</mask>
<g mask="url(#mask2_729_4491)">
<path d="M22.4824 24.5907C22.4525 24.5082 22.4231 24.4262 22.3918 24.3445C22.3605 24.2631 22.33 24.1811 22.2988 24.0997C22.2346 23.9376 22.1683 23.7764 22.0976 23.6175C21.9587 23.2988 21.808 22.9871 21.6459 22.6821C21.5653 22.53 21.4788 22.3809 21.3925 22.2326C21.3064 22.0843 21.2142 21.9398 21.1185 21.7985C20.9311 21.5159 20.7264 21.2462 20.5045 20.9895C20.0647 20.4826 19.554 20.0514 18.9775 19.7801C18.6908 19.6458 18.3915 19.5498 18.0801 19.4921C17.7697 19.4379 17.4574 19.4228 17.1433 19.4466C16.8238 19.4732 16.5099 19.531 16.2019 19.6194C15.8859 19.7081 15.5771 19.8171 15.2754 19.9459C14.9702 20.0746 14.6703 20.2256 14.3707 20.3809C14.0711 20.5365 13.7753 20.705 13.4801 20.8803C13.1851 21.0558 12.8887 21.2343 12.5908 21.4153C12.2931 21.596 11.9932 21.7799 11.6863 21.9597C11.6106 22.005 11.5324 22.0492 11.4544 22.0932C11.3765 22.1371 11.298 22.1808 11.2188 22.2242L11.0998 22.2898L10.9788 22.3529L10.8574 22.416C10.8798 22.4052 10.9011 22.3925 10.9213 22.3782C10.9432 22.3623 10.9637 22.345 10.9831 22.3259C11.0009 22.3084 11.0173 22.2892 11.0324 22.269C11.0454 22.2504 11.0575 22.2315 11.0686 22.2118C11.0772 22.1962 11.085 22.1797 11.0918 22.163C11.0985 22.146 11.1042 22.1277 11.1069 22.1193C11.1101 22.1088 11.1128 22.098 11.1149 22.087C11.1174 22.077 11.1193 22.0622 11.1201 22.0562C11.1225 22.0436 11.1236 22.0306 11.1236 22.018V21.9945C11.1233 21.9864 11.1228 21.9786 11.1217 21.9705C11.1217 21.9665 11.1217 21.9681 11.1217 21.9665C11.1225 21.9689 11.123 21.9713 11.1233 21.9737L11.1273 21.9869L11.1327 22.0037C11.1414 22.0285 11.1524 22.0581 11.1656 22.0891C11.1923 22.1531 11.2252 22.2229 11.26 22.2935C11.3307 22.4362 11.4105 22.5813 11.4933 22.7266C11.6583 23.0192 11.8355 23.3123 12.0172 23.6022C12.1081 23.747 12.2006 23.8915 12.2941 24.0341L12.4349 24.2464L12.5045 24.3486L12.5366 24.3944L12.5481 24.4108L12.567 24.4346C12.9664 24.9626 13.4164 25.4428 13.9174 25.8751C14.4201 26.3105 14.9621 26.6897 15.5432 27.0125L15.7629 27.1306L15.873 27.1896L15.9857 27.2438L16.2108 27.3525C16.248 27.3708 16.2863 27.3878 16.3249 27.404L16.439 27.4536L16.6671 27.5536L16.9014 27.6445C17.0562 27.7079 17.215 27.7586 17.3744 27.8131C17.4146 27.8263 17.4537 27.8416 17.4941 27.853L17.6146 27.8883L17.8562 27.9608C17.9369 27.9851 18.0188 28.0034 18.1 28.0253C18.1814 28.0468 18.2629 28.0687 18.3451 28.0878L18.5924 28.1409C18.6749 28.1587 18.7574 28.1779 18.8405 28.1908C19.0071 28.2194 19.173 28.2542 19.3412 28.2747L19.5928 28.3108C19.6769 28.3219 19.7613 28.3289 19.8457 28.3391C19.9301 28.3497 20.0145 28.358 20.0992 28.3645L20.3538 28.382C20.5234 28.3971 20.6938 28.3982 20.8639 28.4055C20.9497 28.4098 21.0352 28.4087 21.1207 28.4079H21.3774C21.4631 28.4079 21.5486 28.4025 21.6341 28.4004C21.7198 28.3979 21.8053 28.3955 21.8908 28.3906L22.1475 28.3723C22.2332 28.3658 22.3187 28.3615 22.4042 28.3515L22.6609 28.3254C22.7035 28.3205 22.7467 28.3173 22.7893 28.3114L22.9171 28.2933L23.1738 28.258C23.2595 28.2469 23.345 28.2294 23.4291 28.2162C23.5133 28.2027 23.6004 28.1876 23.6859 28.1717L23.9401 28.1188C24.1111 28.0867 24.278 28.0428 24.4474 28.0026L24.5744 27.9724L24.7003 27.9379L24.9524 27.8686C25.0379 27.847 25.1188 27.8174 25.2024 27.7923L25.4537 27.7154C25.2976 27.7939 25.142 27.8759 24.9823 27.9487L24.7418 28.0565L24.6213 28.1107L24.4991 28.1604C24.3354 28.2251 24.172 28.2922 24.0046 28.3483L23.7543 28.4341C23.6702 28.4624 23.5855 28.4858 23.5009 28.5123C22.8187 28.7191 22.1235 28.8631 21.4151 28.9442C21.0603 28.9817 20.7022 29.009 20.3449 29.0162L20.0744 29.0214C19.9846 29.0214 19.8951 29.0179 19.8053 29.0165C19.7155 29.0149 19.626 29.0133 19.5359 29.0087L19.2668 28.992C18.5433 28.9448 17.8314 28.8275 17.1312 28.6398C16.957 28.5907 16.7809 28.5452 16.6088 28.4861L16.3494 28.4006L16.0927 28.306L15.9649 28.258C15.922 28.2421 15.8794 28.2253 15.8379 28.207L15.5866 28.0992L15.4609 28.045L15.3374 27.9856L15.0904 27.8664L15.0287 27.8379L14.9688 27.805L14.8483 27.74L14.6067 27.6095L14.371 27.4668C14.2931 27.4185 14.213 27.3735 14.138 27.3209L13.9096 27.1672C13.8719 27.1416 13.833 27.1168 13.7956 27.0898L13.6853 27.0087L13.4639 26.8445C13.4267 26.8175 13.3911 26.7873 13.3558 26.7587L13.249 26.6716C12.6773 26.2021 12.1639 25.6763 11.7087 25.0939L11.6866 25.0653L11.658 25.0289L11.6143 24.9709L11.5361 24.8569L11.3859 24.6336C11.2873 24.4847 11.1904 24.3356 11.0953 24.186C10.9046 23.8848 10.7188 23.5819 10.5384 23.267C10.45 23.1084 10.3629 22.9477 10.279 22.7768C10.237 22.691 10.196 22.6023 10.1558 22.5047C10.1358 22.4559 10.1162 22.4038 10.097 22.3467L10.0824 22.3014L10.0684 22.2515L10.0552 22.1946C10.0509 22.1717 10.0469 22.1517 10.0431 22.1261C10.0385 22.0964 10.0355 22.0665 10.0342 22.0366V22.0101C10.0342 22.001 10.0342 21.9937 10.0342 21.9816C10.0342 21.9581 10.0371 21.9344 10.0398 21.9106C10.0415 21.8993 10.0452 21.8794 10.0482 21.864C10.0514 21.8483 10.056 21.8314 10.0606 21.8154C10.066 21.7952 10.073 21.7755 10.0808 21.7564C10.09 21.7346 10.1 21.7132 10.1108 21.6925C10.124 21.6679 10.1391 21.6445 10.1558 21.6224C10.1739 21.5978 10.1938 21.5746 10.2154 21.5531C10.2388 21.5296 10.2639 21.5083 10.2909 21.4894C10.3157 21.4719 10.3416 21.4563 10.3683 21.4422L10.4796 21.3854L10.591 21.3282L10.7024 21.2683C10.851 21.1893 10.999 21.1052 11.1484 21.0219C11.7457 20.687 12.3446 20.3216 12.9653 19.9794C13.586 19.6369 14.2305 19.3085 14.9176 19.051C15.2646 18.9194 15.6189 18.8123 15.9805 18.7295C16.3511 18.6457 16.7259 18.5988 17.1055 18.5888C17.4925 18.581 17.8735 18.6241 18.2491 18.7177C18.6231 18.8115 18.9775 18.9542 19.3121 19.1456C19.64 19.3341 19.9398 19.5598 20.2114 19.823C20.3459 19.9513 20.4703 20.0881 20.5903 20.2267C20.7102 20.3653 20.8216 20.5101 20.9262 20.6584C21.3375 21.2494 21.6697 21.8821 21.9226 22.5562C22.1758 23.216 22.3624 23.8942 22.4824 24.5907Z" fill="white"/>
</g>
</g>
</g>
<rect x="3.85417" y="0.854167" width="39.2917" height="39.2917" rx="9.39583" stroke="url(#paint1_linear_729_4491)" stroke-width="1.70833"/>
</g>
<path d="M57.6081 12.76H61.5201L66.1521 23.44L71.2641 12.76H74.7921V28H72.2001V17.608L72.4161 15.232L67.6161 25.528H64.6641L59.9601 14.848L60.2001 17.608V28H57.6081V12.76ZM78.051 13.6C78.051 13.232 78.195 12.888 78.483 12.568C78.787 12.248 79.195 12.088 79.707 12.088C80.203 12.088 80.603 12.232 80.907 12.52C81.211 12.808 81.363 13.152 81.363 13.552C81.363 13.952 81.219 14.312 80.931 14.632C80.643 14.952 80.235 15.112 79.707 15.112C79.195 15.112 78.787 14.96 78.483 14.656C78.195 14.352 78.051 14 78.051 13.6ZM78.411 28V16.384H80.979V28H78.411ZM84.3636 28V10.84H86.9316V28H84.3636ZM89.4527 22.192C89.4527 20.192 90.0047 18.704 91.1087 17.728C92.2287 16.752 93.7327 16.264 95.6207 16.264C97.4927 16.264 98.9807 16.752 100.085 17.728C101.189 18.704 101.741 20.192 101.741 22.192C101.741 23.248 101.581 24.152 101.261 24.904C100.957 25.656 100.533 26.272 99.9887 26.752C99.4447 27.216 98.7967 27.56 98.0447 27.784C97.2927 28.008 96.4847 28.12 95.6207 28.12C94.7567 28.12 93.9487 28.008 93.1967 27.784C92.4447 27.56 91.7887 27.216 91.2287 26.752C90.6847 26.272 90.2527 25.656 89.9327 24.904C89.6127 24.152 89.4527 23.248 89.4527 22.192ZM95.6207 25.96C96.1647 25.96 96.6607 25.896 97.1087 25.768C97.5567 25.64 97.9327 25.432 98.2367 25.144C98.5567 24.84 98.7967 24.448 98.9567 23.968C99.1327 23.488 99.2207 22.896 99.2207 22.192C99.2207 21.472 99.1327 20.872 98.9567 20.392C98.7967 19.912 98.5567 19.528 98.2367 19.24C97.9327 18.952 97.5567 18.744 97.1087 18.616C96.6607 18.488 96.1647 18.424 95.6207 18.424C95.0767 18.424 94.5807 18.488 94.1327 18.616C93.7007 18.744 93.3247 18.952 93.0047 19.24C92.6847 19.528 92.4367 19.912 92.2607 20.392C92.0847 20.872 91.9967 21.472 91.9967 22.192C91.9967 22.896 92.0847 23.488 92.2607 23.968C92.4367 24.448 92.6847 24.84 93.0047 25.144C93.3247 25.432 93.7007 25.64 94.1327 25.768C94.5807 25.896 95.0767 25.96 95.6207 25.96ZM105.463 15.112C104.951 15.112 104.543 14.96 104.239 14.656C103.951 14.352 103.807 14 103.807 13.6C103.807 13.232 103.951 12.888 104.239 12.568C104.543 12.248 104.951 12.088 105.463 12.088C105.975 12.088 106.375 12.232 106.663 12.52C106.967 12.808 107.119 13.152 107.119 13.552C107.119 13.952 106.975 14.312 106.687 14.632C106.399 14.952 105.991 15.112 105.463 15.112ZM101.071 32.392V30.352H103.543C103.831 30.352 104.007 30.256 104.071 30.064C104.151 29.872 104.191 29.592 104.191 29.224V16.36H106.783V29.176C106.783 30.248 106.583 31.048 106.183 31.576C105.799 32.12 105.143 32.392 104.215 32.392H101.071ZM120.106 28C119.466 28 118.914 27.824 118.45 27.472C118.002 27.12 117.778 26.584 117.778 25.864C117.506 26.632 117.034 27.216 116.362 27.616C115.706 28.016 114.97 28.248 114.154 28.312C113.594 28.344 113.026 28.296 112.45 28.168C111.89 28.056 111.378 27.864 110.914 27.592C110.45 27.304 110.066 26.944 109.762 26.512C109.474 26.064 109.314 25.544 109.282 24.952C109.25 24.104 109.386 23.424 109.69 22.912C109.994 22.4 110.394 22.008 110.89 21.736C111.386 21.448 111.946 21.256 112.57 21.16C113.194 21.064 113.802 21.016 114.394 21.016H117.778V19.72C117.778 19.16 117.498 18.752 116.938 18.496C116.378 18.24 115.698 18.112 114.898 18.112C114.146 18.096 113.506 18.232 112.978 18.52C112.45 18.808 112.186 19.24 112.186 19.816H109.858C109.858 19.128 109.994 18.552 110.266 18.088C110.538 17.608 110.906 17.224 111.37 16.936C111.834 16.648 112.37 16.44 112.978 16.312C113.586 16.184 114.226 16.12 114.898 16.12C115.842 16.12 116.658 16.216 117.346 16.408C118.034 16.6 118.594 16.856 119.026 17.176C119.474 17.48 119.802 17.84 120.01 18.256C120.218 18.672 120.322 19.096 120.322 19.528V25.336C120.322 25.576 120.386 25.776 120.514 25.936C120.642 26.08 120.826 26.152 121.066 26.152H121.282V28H120.106ZM111.778 24.448C111.746 24.784 111.786 25.08 111.898 25.336C112.026 25.592 112.202 25.808 112.426 25.984C112.65 26.144 112.914 26.264 113.218 26.344C113.538 26.424 113.866 26.464 114.202 26.464C114.554 26.464 114.914 26.424 115.282 26.344C115.65 26.248 115.994 26.104 116.314 25.912C116.65 25.72 116.946 25.48 117.202 25.192C117.458 24.904 117.642 24.576 117.754 24.208V22.552H114.514C114.258 22.552 113.978 22.576 113.674 22.624C113.37 22.656 113.082 22.736 112.81 22.864C112.554 22.992 112.322 23.184 112.114 23.44C111.922 23.68 111.81 24.016 111.778 24.448ZM133.297 28V14.992H128.161V12.76H141.073V14.992H135.937V28H133.297ZM149.742 28.024V25.336C149.438 26.168 148.99 26.832 148.398 27.328C147.806 27.824 146.982 28.096 145.926 28.144C145.062 28.176 144.318 28.08 143.694 27.856C143.086 27.616 142.582 27.272 142.182 26.824C141.782 26.376 141.486 25.832 141.294 25.192C141.118 24.552 141.03 23.84 141.03 23.056V16.384H143.598V22.816C143.598 23.28 143.63 23.712 143.694 24.112C143.774 24.512 143.918 24.864 144.126 25.168C144.334 25.456 144.622 25.688 144.99 25.864C145.358 26.024 145.83 26.104 146.406 26.104C146.95 26.104 147.422 26.016 147.822 25.84C148.238 25.648 148.574 25.392 148.83 25.072C149.102 24.752 149.302 24.376 149.43 23.944C149.574 23.496 149.646 23.016 149.646 22.504V16.384H152.214V28L149.742 28.024ZM155.403 28V10.84H157.971V28H155.403ZM160.492 22.192C160.492 20.192 161.044 18.704 162.148 17.728C163.268 16.752 164.772 16.264 166.66 16.264C168.532 16.264 170.02 16.752 171.124 17.728C172.228 18.704 172.78 20.192 172.78 22.192C172.78 23.248 172.62 24.152 172.3 24.904C171.996 25.656 171.572 26.272 171.028 26.752C170.484 27.216 169.836 27.56 169.084 27.784C168.332 28.008 167.524 28.12 166.66 28.12C165.796 28.12 164.988 28.008 164.236 27.784C163.484 27.56 162.828 27.216 162.268 26.752C161.724 26.272 161.292 25.656 160.972 24.904C160.652 24.152 160.492 23.248 160.492 22.192ZM166.66 25.96C167.204 25.96 167.7 25.896 168.148 25.768C168.596 25.64 168.972 25.432 169.276 25.144C169.596 24.84 169.836 24.448 169.996 23.968C170.172 23.488 170.26 22.896 170.26 22.192C170.26 21.472 170.172 20.872 169.996 20.392C169.836 19.912 169.596 19.528 169.276 19.24C168.972 18.952 168.596 18.744 168.148 18.616C167.7 18.488 167.204 18.424 166.66 18.424C166.116 18.424 165.62 18.488 165.172 18.616C164.74 18.744 164.364 18.952 164.044 19.24C163.724 19.528 163.476 19.912 163.3 20.392C163.124 20.872 163.036 21.472 163.036 22.192C163.036 22.896 163.124 23.488 163.3 23.968C163.476 24.448 163.724 24.84 164.044 25.144C164.364 25.432 164.74 25.64 165.172 25.768C165.62 25.896 166.116 25.96 166.66 25.96ZM176.502 15.112C175.99 15.112 175.582 14.96 175.278 14.656C174.99 14.352 174.846 14 174.846 13.6C174.846 13.232 174.99 12.888 175.278 12.568C175.582 12.248 175.99 12.088 176.502 12.088C177.014 12.088 177.414 12.232 177.702 12.52C178.006 12.808 178.158 13.152 178.158 13.552C178.158 13.952 178.014 14.312 177.726 14.632C177.438 14.952 177.03 15.112 176.502 15.112ZM172.11 32.392V30.352H174.582C174.87 30.352 175.046 30.256 175.11 30.064C175.19 29.872 175.23 29.592 175.23 29.224V16.36H177.822V29.176C177.822 30.248 177.622 31.048 177.222 31.576C176.838 32.12 176.182 32.392 175.254 32.392H172.11ZM191.145 28C190.505 28 189.953 27.824 189.489 27.472C189.041 27.12 188.817 26.584 188.817 25.864C188.545 26.632 188.073 27.216 187.401 27.616C186.745 28.016 186.009 28.248 185.193 28.312C184.633 28.344 184.065 28.296 183.489 28.168C182.929 28.056 182.417 27.864 181.953 27.592C181.489 27.304 181.105 26.944 180.801 26.512C180.513 26.064 180.353 25.544 180.321 24.952C180.289 24.104 180.425 23.424 180.729 22.912C181.033 22.4 181.433 22.008 181.929 21.736C182.425 21.448 182.985 21.256 183.609 21.16C184.233 21.064 184.841 21.016 185.433 21.016H188.817V19.72C188.817 19.16 188.537 18.752 187.977 18.496C187.417 18.24 186.737 18.112 185.937 18.112C185.185 18.096 184.545 18.232 184.017 18.52C183.489 18.808 183.225 19.24 183.225 19.816H180.897C180.897 19.128 181.033 18.552 181.305 18.088C181.577 17.608 181.945 17.224 182.409 16.936C182.873 16.648 183.409 16.44 184.017 16.312C184.625 16.184 185.265 16.12 185.937 16.12C186.881 16.12 187.697 16.216 188.385 16.408C189.073 16.6 189.633 16.856 190.065 17.176C190.513 17.48 190.841 17.84 191.049 18.256C191.257 18.672 191.361 19.096 191.361 19.528V25.336C191.361 25.576 191.425 25.776 191.553 25.936C191.681 26.08 191.865 26.152 192.105 26.152H192.321V28H191.145ZM182.817 24.448C182.785 24.784 182.825 25.08 182.937 25.336C183.065 25.592 183.241 25.808 183.465 25.984C183.689 26.144 183.953 26.264 184.257 26.344C184.577 26.424 184.905 26.464 185.241 26.464C185.593 26.464 185.953 26.424 186.321 26.344C186.689 26.248 187.033 26.104 187.353 25.912C187.689 25.72 187.985 25.48 188.241 25.192C188.497 24.904 188.681 24.576 188.793 24.208V22.552H185.553C185.297 22.552 185.017 22.576 184.713 22.624C184.409 22.656 184.121 22.736 183.849 22.864C183.593 22.992 183.361 23.184 183.153 23.44C182.961 23.68 182.849 24.016 182.817 24.448Z" fill="#979C8C"/>
<defs>
<filter id="filter0_ddiii_729_4491" x="0.4375" y="-2.5625" width="46.125" height="48.6875" filterUnits="userSpaceOnUse" color-interpolation-filters="sRGB">
<feFlood flood-opacity="0" result="BackgroundImageFix"/>
<feColorMatrix in="SourceAlpha" type="matrix" values="0 0 0 0 0 0 0 0 0 0 0 0 0 0 0 0 0 0 127 0" result="hardAlpha"/>
<feOffset dy="0.854167"/>
<feGaussianBlur stdDeviation="0.427083"/>
<feComposite in2="hardAlpha" operator="out"/>
<feColorMatrix type="matrix" values="0 0 0 0 0.162923 0 0 0 0 0.162923 0 0 0 0 0.162923 0 0 0 0.08 0"/>
<feBlend mode="normal" in2="BackgroundImageFix" result="effect1_dropShadow_729_4491"/>
<feColorMatrix in="SourceAlpha" type="matrix" values="0 0 0 0 0 0 0 0 0 0 0 0 0 0 0 0 0 0 127 0" result="hardAlpha"/>
<feMorphology radius="0.854167" operator="erode" in="SourceAlpha" result="effect2_dropShadow_729_4491"/>
<feOffset dy="2.5625"/>
<feGaussianBlur stdDeviation="1.70833"/>
<feComposite in2="hardAlpha" operator="out"/>
<feColorMatrix type="matrix" values="0 0 0 0 0.164706 0 0 0 0 0.164706 0 0 0 0 0.164706 0 0 0 0.14 0"/>
<feBlend mode="normal" in2="effect1_dropShadow_729_4491" result="effect2_dropShadow_729_4491"/>
<feBlend mode="normal" in="SourceGraphic" in2="effect2_dropShadow_729_4491" result="shape"/>
<feColorMatrix in="SourceAlpha" type="matrix" values="0 0 0 0 0 0 0 0 0 0 0 0 0 0 0 0 0 0 127 0" result="hardAlpha"/>
<feOffset dy="-2.5625"/>
<feGaussianBlur stdDeviation="1.28125"/>
<feComposite in2="hardAlpha" operator="arithmetic" k2="-1" k3="1"/>
<feColorMatrix type="matrix" values="0 0 0 0 0 0 0 0 0 0 0 0 0 0 0 0 0 0 0.1 0"/>
<feBlend mode="normal" in2="shape" result="effect3_innerShadow_729_4491"/>
<feColorMatrix in="SourceAlpha" type="matrix" values="0 0 0 0 0 0 0 0 0 0 0 0 0 0 0 0 0 0 127 0" result="hardAlpha"/>
<feOffset dy="2.5625"/>
<feGaussianBlur stdDeviation="1.28125"/>
<feComposite in2="hardAlpha" operator="arithmetic" k2="-1" k3="1"/>
<feColorMatrix type="matrix" values="0 0 0 0 1 0 0 0 0 1 0 0 0 0 1 0 0 0 0.1 0"/>
<feBlend mode="normal" in2="effect3_innerShadow_729_4491" result="effect4_innerShadow_729_4491"/>
<feColorMatrix in="SourceAlpha" type="matrix" values="0 0 0 0 0 0 0 0 0 0 0 0 0 0 0 0 0 0 127 0" result="hardAlpha"/>
<feMorphology radius="0.854167" operator="erode" in="SourceAlpha" result="effect5_innerShadow_729_4491"/>
<feOffset/>
<feComposite in2="hardAlpha" operator="arithmetic" k2="-1" k3="1"/>
<feColorMatrix type="matrix" values="0 0 0 0 0 0 0 0 0 0 0 0 0 0 0 0 0 0 0.2 0"/>
<feBlend mode="normal" in2="effect4_innerShadow_729_4491" result="effect5_innerShadow_729_4491"/>
</filter>
<filter id="filter1_d_729_4491" x="6.26875" y="3.42974" width="32.775" height="38.2374" filterUnits="userSpaceOnUse" color-interpolation-filters="sRGB">
<feFlood flood-opacity="0" result="BackgroundImageFix"/>
<feColorMatrix in="SourceAlpha" type="matrix" values="0 0 0 0 0 0 0 0 0 0 0 0 0 0 0 0 0 0 127 0" result="hardAlpha"/>
<feMorphology radius="1.36563" operator="erode" in="SourceAlpha" result="effect1_dropShadow_729_4491"/>
<feOffset dy="2.04844"/>
<feGaussianBlur stdDeviation="2.04844"/>
<feComposite in2="hardAlpha" operator="out"/>
<feColorMatrix type="matrix" values="0 0 0 0 0.141176 0 0 0 0 0.141176 0 0 0 0 0.141176 0 0 0 0.1 0"/>
<feBlend mode="normal" in2="BackgroundImageFix" result="effect1_dropShadow_729_4491"/>
<feBlend mode="normal" in="SourceGraphic" in2="effect1_dropShadow_729_4491" result="shape"/>
</filter>
<linearGradient id="paint0_linear_729_4491" x1="20.5" y1="5.09123e-07" x2="22.2083" y2="41" gradientUnits="userSpaceOnUse">
<stop stop-color="white" stop-opacity="0"/>
<stop offset="1" stop-color="white" stop-opacity="0.12"/>
</linearGradient>
<linearGradient id="paint1_linear_729_4491" x1="23.5" y1="0" x2="23.5" y2="41" gradientUnits="userSpaceOnUse">
<stop stop-color="white" stop-opacity="0.12"/>
<stop offset="1" stop-color="white" stop-opacity="0"/>
</linearGradient>
<clipPath id="clip0_729_4491">
<rect x="3" width="41" height="41" rx="10.25" fill="white"/>
</clipPath>
</defs>
</svg>
