<svg width="195" height="47" viewBox="0 0 195 47" fill="none" xmlns="http://www.w3.org/2000/svg">
<g filter="url(#filter0_ddiii_694_4404)">
<g clip-path="url(#clip0_694_4404)">
<rect x="3" width="41" height="41" rx="10.25" fill="#939888"/>
<rect width="41" height="41" transform="translate(3)" fill="url(#paint0_linear_694_4404)"/>
<g filter="url(#filter1_d_694_4404)">
<mask id="mask0_694_4404" style="mask-type:luminance" maskUnits="userSpaceOnUse" x="18" y="19" width="19" height="12">
<path d="M18.8176 19.6494H36.3269V30.6253H18.8176V19.6494Z" fill="white"/>
</mask>
<g mask="url(#mask0_694_4404)">
<path d="M36.2987 19.6753C36.2173 19.8886 36.1299 20.1 36.042 20.3117C35.9498 20.5209 35.8554 20.7294 35.7586 20.937C35.6602 21.1438 35.5545 21.3466 35.4515 21.5518C35.4005 21.6548 35.3426 21.7535 35.2881 21.8546L35.1217 22.1564C34.6646 22.9588 34.1528 23.7249 33.5863 24.4541C32.4495 25.9123 31.0853 27.2191 29.5189 28.2478C28.7334 28.7661 27.9053 29.2035 27.0346 29.5599L26.7064 29.6869C26.5967 29.7282 26.4885 29.7724 26.3766 29.8088C26.265 29.8455 26.1547 29.8846 26.0433 29.9205C25.9317 29.9563 25.8209 29.9943 25.7073 30.0237L25.3687 30.1178L25.1996 30.1645C25.1424 30.1796 25.0855 30.1917 25.0284 30.2044L24.6862 30.2799L24.5149 30.3171L24.3421 30.3473C22.5036 30.6806 20.6077 30.6183 18.8398 30.1534C19.0682 30.147 19.2964 30.1464 19.5245 30.1451C19.5817 30.1451 19.6386 30.1429 19.6957 30.1405L19.8667 30.1335C19.9807 30.1284 20.0926 30.1254 20.2054 30.1216C20.3181 30.1176 20.4305 30.1076 20.5424 30.1009L20.8787 30.0777C20.9358 30.0728 20.9906 30.0709 21.0461 30.065L21.2133 30.0472L21.5469 30.0111C22.4281 29.9099 23.2961 29.7417 24.1512 29.506C25.8503 29.0387 27.4517 28.2936 28.9178 27.3315C30.3839 26.3694 31.7182 25.1967 32.9327 23.8962C33.5415 23.2468 34.1202 22.5635 34.6773 21.857L35.0912 21.3229L35.4981 20.7809C35.6297 20.597 35.7651 20.4147 35.8991 20.2308C36.0334 20.0466 36.1618 19.8589 36.2987 19.6753Z" fill="white"/>
</g>
<mask id="mask1_694_4404" style="mask-type:luminance" maskUnits="userSpaceOnUse" x="21" y="9" width="15" height="18">
<path d="M21.8547 9.30859H35.3848V26.4148H21.8547V9.30859Z" fill="white"/>
</mask>
<g mask="url(#mask1_694_4404)">
<path d="M28.5088 26.2505C28.8655 25.9784 29.222 25.7087 29.554 25.4105C29.8932 25.1217 30.21 24.8094 30.5236 24.4977C31.1392 23.8616 31.699 23.1797 32.2036 22.4524C32.4476 22.0868 32.6884 21.7192 32.9001 21.3355C33.1188 20.9558 33.3126 20.5635 33.4973 20.1682L33.6268 19.8678L33.6912 19.7179C33.7123 19.668 33.7306 19.6184 33.7503 19.5687C33.77 19.5191 33.7896 19.4698 33.8074 19.4194L33.86 19.2684C33.897 19.1686 33.9269 19.0656 33.9584 18.9636C34.0814 18.5524 34.1755 18.1347 34.2416 17.7106C34.3082 17.2837 34.3519 16.8547 34.3724 16.423C34.3947 15.9905 34.3999 15.5558 34.3883 15.1189C34.3645 14.2458 34.2882 13.3689 34.186 12.4893C34.1351 12.0487 34.0811 11.6073 34.0242 11.165L33.9385 10.4998L33.9169 10.3332L33.9059 10.2523C33.9029 10.232 33.9002 10.2175 33.8983 10.2099C33.8964 10.2021 33.8956 10.2018 33.8983 10.2099C33.9056 10.2304 33.9161 10.2493 33.9291 10.2668C33.9533 10.2997 33.9827 10.327 34.0172 10.3485C34.0469 10.3671 34.0784 10.3804 34.1124 10.3882C34.158 10.3965 34.1518 10.3903 34.1194 10.3957L33.9652 10.4176L33.6343 10.4642C33.4138 10.4958 33.194 10.5281 32.975 10.5616C32.5371 10.6284 32.1014 10.7002 31.6696 10.7819C30.8051 10.9404 29.9536 11.1354 29.1309 11.3983C28.9251 11.463 28.721 11.5331 28.5196 11.6067L28.2213 11.7208C28.1712 11.7391 28.1221 11.7602 28.0736 11.7817L27.9269 11.8451L27.7804 11.9087C27.7314 11.93 27.6842 11.9546 27.6378 11.9775C27.5421 12.0242 27.4458 12.0689 27.3509 12.1172C27.1643 12.2186 26.9747 12.3151 26.7943 12.4265L26.6571 12.5071C26.611 12.5335 26.5678 12.5643 26.5231 12.5926C26.4346 12.6497 26.3451 12.7069 26.2572 12.7673L26.0005 12.9528L25.936 12.9992L25.8737 13.0486L25.7497 13.1473L25.624 13.2473C25.5822 13.2802 25.5442 13.3163 25.5038 13.3508L25.3849 13.4555C25.3455 13.4905 25.304 13.5237 25.2659 13.5604L25.0378 13.7804C25.0189 13.7987 24.9993 13.8165 24.9807 13.8354L24.9265 13.8926L24.8181 14.008L24.7091 14.1237C24.6735 14.1625 24.6409 14.204 24.6064 14.2439C24.5387 14.3251 24.468 14.4038 24.4022 14.4869L24.2103 14.7409C24.1943 14.7619 24.1779 14.7827 24.1625 14.804L24.1178 14.8698L24.0277 15.0006L23.9374 15.1316C23.9074 15.1753 23.8802 15.2214 23.8519 15.2662C23.7969 15.3568 23.74 15.4468 23.6858 15.538C23.5857 15.7251 23.4787 15.9088 23.3908 16.1024C23.2077 16.4872 23.0556 16.8838 22.9345 17.2926C22.8145 17.7044 22.7247 18.1229 22.6646 18.5476C22.605 18.9774 22.5718 19.4091 22.5656 19.843C22.557 20.279 22.5743 20.7169 22.6093 21.1551C22.6778 22.0328 22.8218 22.9105 22.9963 23.7848C23.0845 24.2216 23.1799 24.6584 23.2794 25.0947L23.4293 25.7508C23.4808 25.9687 23.5315 26.1874 23.5812 26.4069L23.4628 26.0932L23.3471 25.7775L23.119 25.1438C22.9715 24.7196 22.8296 24.2933 22.6991 23.8627C22.4365 23.0014 22.2156 22.1226 22.073 21.222C22.0018 20.7695 21.9538 20.3143 21.929 19.857C21.9053 19.3948 21.9112 18.9332 21.9473 18.4718C21.9837 18.0058 22.056 17.5453 22.1644 17.0906C22.2728 16.632 22.4187 16.1857 22.6023 15.7516C22.6913 15.5329 22.7989 15.3239 22.9016 15.1127C22.9569 15.0089 23.0157 14.9067 23.0729 14.8035C23.1014 14.7525 23.1298 14.6999 23.1602 14.65L23.2541 14.5004L23.3482 14.3507L23.3975 14.2741L23.4485 14.2016L23.6532 13.9131C23.7235 13.8181 23.7988 13.727 23.8713 13.634C23.9082 13.5881 23.9438 13.5407 23.9821 13.4956L24.0989 13.3627L24.2162 13.2295L24.2744 13.1632C24.2944 13.1416 24.3154 13.1206 24.3359 13.0993L24.5829 12.8455C24.667 12.7625 24.7539 12.6837 24.8415 12.6034C24.8855 12.564 24.9273 12.5222 24.9728 12.4842L25.1085 12.3701L25.2444 12.2561L25.3126 12.1992L25.3827 12.1455L25.665 11.9335C25.7608 11.8651 25.8586 11.7995 25.9557 11.7337C26.0045 11.7011 26.0517 11.6658 26.1021 11.635L26.2521 11.5415L26.4017 11.4484L26.4772 11.4021L26.5538 11.3586L26.862 11.1877C26.9658 11.133 27.0713 11.0814 27.1756 11.0283C27.2285 11.0024 27.2802 10.9749 27.3336 10.9504L27.4941 10.8781L27.6543 10.8056C27.7076 10.7813 27.7613 10.7576 27.8158 10.7363L28.1418 10.6052C28.3594 10.5216 28.5781 10.4435 28.7978 10.3706C29.6788 10.0829 30.5751 9.87475 31.4704 9.70649C31.9185 9.62425 32.3667 9.55306 32.8135 9.48672C33.037 9.45356 33.2603 9.42174 33.4833 9.39127L33.8174 9.3457L33.901 9.3341L33.9425 9.32844L33.9954 9.32197C34.11 9.30714 34.2241 9.31064 34.3376 9.33275C34.4271 9.35163 34.5107 9.38507 34.5884 9.43333C34.6709 9.48511 34.741 9.55009 34.7984 9.62856C34.8437 9.69085 34.8799 9.75799 34.9065 9.83026C34.9262 9.88311 34.9416 9.93704 34.9527 9.99259C34.9621 10.0398 34.9678 10.0805 34.9723 10.1158L34.9823 10.2027L35.0015 10.369L35.0783 11.0364C35.1293 11.4824 35.1797 11.9303 35.221 12.3812C35.3029 13.2818 35.3636 14.1916 35.355 15.1092C35.3507 15.5679 35.3326 16.0282 35.2897 16.4882C35.2477 16.9502 35.1813 17.4088 35.0902 17.8637C34.9977 18.3224 34.8718 18.7717 34.7127 19.2115C34.6719 19.3217 34.6331 19.4318 34.5873 19.5399L34.5204 19.7025C34.4972 19.7562 34.4724 19.8093 34.4487 19.8627C34.4247 19.9161 34.4009 19.9703 34.3753 20.0223L34.2974 20.176L34.1418 20.4834C33.7104 21.2932 33.2075 22.056 32.6336 22.7719C32.059 23.479 31.4251 24.128 30.7318 24.7188C30.0404 25.3016 29.2997 25.8123 28.5088 26.2505Z" fill="white"/>
</g>
<mask id="mask2_694_4404" style="mask-type:luminance" maskUnits="userSpaceOnUse" x="10" y="18" width="16" height="12">
<path d="M10.0261 18.5454H25.5136V29.0381H10.0261V18.5454Z" fill="white"/>
</mask>
<g mask="url(#mask2_694_4404)">
<path d="M22.4826 24.5907C22.4527 24.5082 22.4233 24.4262 22.392 24.3445C22.3608 24.2631 22.3303 24.1811 22.299 24.0997C22.2348 23.9376 22.1685 23.7764 22.0979 23.6175C21.959 23.2988 21.8082 22.9871 21.6462 22.6821C21.5656 22.53 21.479 22.3809 21.3927 22.2326C21.3067 22.0843 21.2145 21.9398 21.1187 21.7985C20.9313 21.5159 20.7267 21.2462 20.5047 20.9895C20.0649 20.4826 19.5542 20.0514 18.9777 19.7801C18.6911 19.6458 18.3918 19.5498 18.0803 19.4921C17.7699 19.4379 17.4577 19.4228 17.1435 19.4466C16.824 19.4732 16.5101 19.531 16.2022 19.6194C15.8861 19.7081 15.5774 19.8171 15.2757 19.9459C14.9704 20.0746 14.6706 20.2256 14.371 20.3809C14.0714 20.5365 13.7756 20.705 13.4803 20.8803C13.1853 21.0558 12.889 21.2343 12.591 21.4153C12.2933 21.596 11.9934 21.7799 11.6866 21.9597C11.6108 22.005 11.5326 22.0492 11.4547 22.0932C11.3768 22.1371 11.2983 22.1808 11.219 22.2242L11.1001 22.2898L10.979 22.3529L10.8577 22.416C10.8801 22.4052 10.9014 22.3925 10.9216 22.3782C10.9434 22.3623 10.9639 22.345 10.9833 22.3259C11.0011 22.3084 11.0176 22.2892 11.0327 22.269C11.0456 22.2504 11.0578 22.2315 11.0688 22.2118C11.0774 22.1962 11.0853 22.1797 11.092 22.163C11.0987 22.146 11.1044 22.1277 11.1071 22.1193C11.1103 22.1088 11.113 22.098 11.1152 22.087C11.1176 22.077 11.1195 22.0622 11.1203 22.0562C11.1227 22.0436 11.1238 22.0306 11.1238 22.018V21.9945C11.1235 21.9864 11.123 21.9786 11.1219 21.9705C11.1219 21.9665 11.1219 21.9681 11.1219 21.9665C11.1227 21.9689 11.1233 21.9713 11.1235 21.9737L11.1276 21.9869L11.133 22.0037C11.1416 22.0285 11.1527 22.0581 11.1659 22.0891C11.1926 22.1531 11.2255 22.2229 11.2603 22.2935C11.3309 22.4362 11.4107 22.5813 11.4935 22.7266C11.6585 23.0192 11.8357 23.3123 12.0174 23.6022C12.1083 23.747 12.2008 23.8915 12.2944 24.0341L12.4351 24.2464L12.5047 24.3486L12.5368 24.3944L12.5484 24.4108L12.5673 24.4346C12.9666 24.9626 13.4167 25.4428 13.9177 25.8751C14.4203 26.3105 14.9623 26.6897 15.5434 27.0125L15.7632 27.1306L15.8732 27.1896L15.9859 27.2438L16.2111 27.3525C16.2483 27.3708 16.2866 27.3878 16.3251 27.404L16.4392 27.4536L16.6673 27.5536L16.9017 27.6445C17.0564 27.7079 17.2153 27.7586 17.3746 27.8131C17.4148 27.8263 17.4539 27.8416 17.4943 27.853L17.6149 27.8883L17.8565 27.9608C17.9371 27.9851 18.0191 28.0034 18.1003 28.0253C18.1817 28.0468 18.2631 28.0687 18.3454 28.0878L18.5926 28.1409C18.6752 28.1587 18.7577 28.1779 18.8407 28.1908C19.0074 28.2194 19.1732 28.2542 19.3415 28.2747L19.5931 28.3108C19.6772 28.3219 19.7616 28.3289 19.846 28.3391C19.9304 28.3497 20.0148 28.358 20.0995 28.3645L20.354 28.382C20.5236 28.3971 20.694 28.3982 20.8642 28.4055C20.9499 28.4098 21.0354 28.4087 21.1209 28.4079H21.3776C21.4634 28.4079 21.5488 28.4025 21.6343 28.4004C21.7201 28.3979 21.8055 28.3955 21.891 28.3906L22.1477 28.3723C22.2335 28.3658 22.319 28.3615 22.4044 28.3515L22.6612 28.3254C22.7038 28.3205 22.7469 28.3173 22.7895 28.3114L22.9173 28.2933L23.174 28.258C23.2598 28.2469 23.3453 28.2294 23.4294 28.2162C23.5135 28.2027 23.6006 28.1876 23.6861 28.1717L23.9404 28.1188C24.1113 28.0867 24.2783 28.0428 24.4476 28.0026L24.5746 27.9724L24.7005 27.9379L24.9527 27.8686C25.0381 27.847 25.119 27.8174 25.2026 27.7923L25.4539 27.7154C25.2978 27.7939 25.1422 27.8759 24.9826 27.9487L24.7421 28.0565L24.6215 28.1107L24.4994 28.1604C24.3357 28.2251 24.1723 28.2922 24.0048 28.3483L23.7546 28.4341C23.6705 28.4624 23.5858 28.4858 23.5011 28.5123C22.8189 28.7191 22.1237 28.8631 21.4154 28.9442C21.0605 28.9817 20.7024 29.009 20.3451 29.0162L20.0747 29.0214C19.9849 29.0214 19.8953 29.0179 19.8055 29.0165C19.7157 29.0149 19.6262 29.0133 19.5362 29.0087L19.267 28.992C18.5436 28.9448 17.8317 28.8275 17.1314 28.6398C16.9572 28.5907 16.7811 28.5452 16.6091 28.4861L16.3497 28.4006L16.093 28.306L15.9652 28.258C15.9223 28.2421 15.8797 28.2253 15.8381 28.207L15.5868 28.0992L15.4612 28.045L15.3377 27.9856L15.0907 27.8664L15.0289 27.8379L14.9691 27.805L14.8485 27.74L14.6069 27.6095L14.3712 27.4668C14.2933 27.4185 14.2132 27.3735 14.1383 27.3209L13.9099 27.1672C13.8721 27.1416 13.8333 27.1168 13.7958 27.0898L13.6855 27.0087L13.4641 26.8445C13.4269 26.8175 13.3913 26.7873 13.356 26.7587L13.2492 26.6716C12.6776 26.2021 12.1641 25.6763 11.709 25.0939L11.6869 25.0653L11.6583 25.0289L11.6146 24.9709L11.5364 24.8569L11.3862 24.6336C11.2875 24.4847 11.1907 24.3356 11.0955 24.186C10.9049 23.8848 10.7191 23.5819 10.5387 23.267C10.4502 23.1084 10.3631 22.9477 10.2793 22.7768C10.2372 22.691 10.1962 22.6023 10.156 22.5047C10.1361 22.4559 10.1164 22.4038 10.0973 22.3467L10.0827 22.3014L10.0687 22.2515L10.0555 22.1946C10.0511 22.1717 10.0471 22.1517 10.0433 22.1261C10.0387 22.0964 10.0358 22.0665 10.0344 22.0366V22.0101C10.0344 22.001 10.0344 21.9937 10.0344 21.9816C10.0344 21.9581 10.0374 21.9344 10.0401 21.9106C10.0417 21.8993 10.0455 21.8794 10.0484 21.864C10.0517 21.8483 10.0563 21.8314 10.0608 21.8154C10.0662 21.7952 10.0733 21.7755 10.0811 21.7564C10.0902 21.7346 10.1002 21.7132 10.111 21.6925C10.1242 21.6679 10.1393 21.6445 10.156 21.6224C10.1741 21.5978 10.1941 21.5746 10.2156 21.5531C10.2391 21.5296 10.2642 21.5083 10.2911 21.4894C10.3159 21.4719 10.3418 21.4563 10.3685 21.4422L10.4799 21.3854L10.5913 21.3282L10.7026 21.2683C10.8512 21.1893 10.9992 21.1052 11.1486 21.0219C11.7459 20.687 12.3448 20.3216 12.9655 19.9794C13.5863 19.6369 14.2307 19.3085 14.9178 19.051C15.2649 18.9194 15.6192 18.8123 15.9808 18.7295C16.3513 18.6457 16.7261 18.5988 17.1058 18.5888C17.4927 18.581 17.8738 18.6241 18.2494 18.7177C18.6234 18.8115 18.9777 18.9542 19.3123 19.1456C19.6402 19.3341 19.9401 19.5598 20.2116 19.823C20.3462 19.9513 20.4705 20.0881 20.5905 20.2267C20.7105 20.3653 20.8219 20.5101 20.9265 20.6584C21.3377 21.2494 21.6699 21.8821 21.9228 22.5562C22.176 23.216 22.3626 23.8942 22.4826 24.5907Z" fill="white"/>
</g>
</g>
</g>
<rect x="3.85417" y="0.854167" width="39.2917" height="39.2917" rx="9.39583" stroke="url(#paint1_linear_694_4404)" stroke-width="1.70833"/>
</g>
<path d="M57.6081 12.76H61.5201L66.1521 23.44L71.2641 12.76H74.7921V28H72.2001V17.608L72.4161 15.232L67.6161 25.528H64.6641L59.9601 14.848L60.2001 17.608V28H57.6081V12.76ZM78.051 13.6C78.051 13.232 78.195 12.888 78.483 12.568C78.787 12.248 79.195 12.088 79.707 12.088C80.203 12.088 80.603 12.232 80.907 12.52C81.211 12.808 81.363 13.152 81.363 13.552C81.363 13.952 81.219 14.312 80.931 14.632C80.643 14.952 80.235 15.112 79.707 15.112C79.195 15.112 78.787 14.96 78.483 14.656C78.195 14.352 78.051 14 78.051 13.6ZM78.411 28V16.384H80.979V28H78.411ZM84.3636 28V10.84H86.9316V28H84.3636ZM89.4527 22.192C89.4527 20.192 90.0047 18.704 91.1087 17.728C92.2287 16.752 93.7327 16.264 95.6207 16.264C97.4927 16.264 98.9807 16.752 100.085 17.728C101.189 18.704 101.741 20.192 101.741 22.192C101.741 23.248 101.581 24.152 101.261 24.904C100.957 25.656 100.533 26.272 99.9887 26.752C99.4447 27.216 98.7967 27.56 98.0447 27.784C97.2927 28.008 96.4847 28.12 95.6207 28.12C94.7567 28.12 93.9487 28.008 93.1967 27.784C92.4447 27.56 91.7887 27.216 91.2287 26.752C90.6847 26.272 90.2527 25.656 89.9327 24.904C89.6127 24.152 89.4527 23.248 89.4527 22.192ZM95.6207 25.96C96.1647 25.96 96.6607 25.896 97.1087 25.768C97.5567 25.64 97.9327 25.432 98.2367 25.144C98.5567 24.84 98.7967 24.448 98.9567 23.968C99.1327 23.488 99.2207 22.896 99.2207 22.192C99.2207 21.472 99.1327 20.872 98.9567 20.392C98.7967 19.912 98.5567 19.528 98.2367 19.24C97.9327 18.952 97.5567 18.744 97.1087 18.616C96.6607 18.488 96.1647 18.424 95.6207 18.424C95.0767 18.424 94.5807 18.488 94.1327 18.616C93.7007 18.744 93.3247 18.952 93.0047 19.24C92.6847 19.528 92.4367 19.912 92.2607 20.392C92.0847 20.872 91.9967 21.472 91.9967 22.192C91.9967 22.896 92.0847 23.488 92.2607 23.968C92.4367 24.448 92.6847 24.84 93.0047 25.144C93.3247 25.432 93.7007 25.64 94.1327 25.768C94.5807 25.896 95.0767 25.96 95.6207 25.96ZM105.463 15.112C104.951 15.112 104.543 14.96 104.239 14.656C103.951 14.352 103.807 14 103.807 13.6C103.807 13.232 103.951 12.888 104.239 12.568C104.543 12.248 104.951 12.088 105.463 12.088C105.975 12.088 106.375 12.232 106.663 12.52C106.967 12.808 107.119 13.152 107.119 13.552C107.119 13.952 106.975 14.312 106.687 14.632C106.399 14.952 105.991 15.112 105.463 15.112ZM101.071 32.392V30.352H103.543C103.831 30.352 104.007 30.256 104.071 30.064C104.151 29.872 104.191 29.592 104.191 29.224V16.36H106.783V29.176C106.783 30.248 106.583 31.048 106.183 31.576C105.799 32.12 105.143 32.392 104.215 32.392H101.071ZM120.106 28C119.466 28 118.914 27.824 118.45 27.472C118.002 27.12 117.778 26.584 117.778 25.864C117.506 26.632 117.034 27.216 116.362 27.616C115.706 28.016 114.97 28.248 114.154 28.312C113.594 28.344 113.026 28.296 112.45 28.168C111.89 28.056 111.378 27.864 110.914 27.592C110.45 27.304 110.066 26.944 109.762 26.512C109.474 26.064 109.314 25.544 109.282 24.952C109.25 24.104 109.386 23.424 109.69 22.912C109.994 22.4 110.394 22.008 110.89 21.736C111.386 21.448 111.946 21.256 112.57 21.16C113.194 21.064 113.802 21.016 114.394 21.016H117.778V19.72C117.778 19.16 117.498 18.752 116.938 18.496C116.378 18.24 115.698 18.112 114.898 18.112C114.146 18.096 113.506 18.232 112.978 18.52C112.45 18.808 112.186 19.24 112.186 19.816H109.858C109.858 19.128 109.994 18.552 110.266 18.088C110.538 17.608 110.906 17.224 111.37 16.936C111.834 16.648 112.37 16.44 112.978 16.312C113.586 16.184 114.226 16.12 114.898 16.12C115.842 16.12 116.658 16.216 117.346 16.408C118.034 16.6 118.594 16.856 119.026 17.176C119.474 17.48 119.802 17.84 120.01 18.256C120.218 18.672 120.322 19.096 120.322 19.528V25.336C120.322 25.576 120.386 25.776 120.514 25.936C120.642 26.08 120.826 26.152 121.066 26.152H121.282V28H120.106ZM111.778 24.448C111.746 24.784 111.786 25.08 111.898 25.336C112.026 25.592 112.202 25.808 112.426 25.984C112.65 26.144 112.914 26.264 113.218 26.344C113.538 26.424 113.866 26.464 114.202 26.464C114.554 26.464 114.914 26.424 115.282 26.344C115.65 26.248 115.994 26.104 116.314 25.912C116.65 25.72 116.946 25.48 117.202 25.192C117.458 24.904 117.642 24.576 117.754 24.208V22.552H114.514C114.258 22.552 113.978 22.576 113.674 22.624C113.37 22.656 113.082 22.736 112.81 22.864C112.554 22.992 112.322 23.184 112.114 23.44C111.922 23.68 111.81 24.016 111.778 24.448ZM133.297 28V14.992H128.161V12.76H141.073V14.992H135.937V28H133.297ZM149.742 28.024V25.336C149.438 26.168 148.99 26.832 148.398 27.328C147.806 27.824 146.982 28.096 145.926 28.144C145.062 28.176 144.318 28.08 143.694 27.856C143.086 27.616 142.582 27.272 142.182 26.824C141.782 26.376 141.486 25.832 141.294 25.192C141.118 24.552 141.03 23.84 141.03 23.056V16.384H143.598V22.816C143.598 23.28 143.63 23.712 143.694 24.112C143.774 24.512 143.918 24.864 144.126 25.168C144.334 25.456 144.622 25.688 144.99 25.864C145.358 26.024 145.83 26.104 146.406 26.104C146.95 26.104 147.422 26.016 147.822 25.84C148.238 25.648 148.574 25.392 148.83 25.072C149.102 24.752 149.302 24.376 149.43 23.944C149.574 23.496 149.646 23.016 149.646 22.504V16.384H152.214V28L149.742 28.024ZM155.403 28V10.84H157.971V28H155.403ZM160.492 22.192C160.492 20.192 161.044 18.704 162.148 17.728C163.268 16.752 164.772 16.264 166.66 16.264C168.532 16.264 170.02 16.752 171.124 17.728C172.228 18.704 172.78 20.192 172.78 22.192C172.78 23.248 172.62 24.152 172.3 24.904C171.996 25.656 171.572 26.272 171.028 26.752C170.484 27.216 169.836 27.56 169.084 27.784C168.332 28.008 167.524 28.12 166.66 28.12C165.796 28.12 164.988 28.008 164.236 27.784C163.484 27.56 162.828 27.216 162.268 26.752C161.724 26.272 161.292 25.656 160.972 24.904C160.652 24.152 160.492 23.248 160.492 22.192ZM166.66 25.96C167.204 25.96 167.7 25.896 168.148 25.768C168.596 25.64 168.972 25.432 169.276 25.144C169.596 24.84 169.836 24.448 169.996 23.968C170.172 23.488 170.26 22.896 170.26 22.192C170.26 21.472 170.172 20.872 169.996 20.392C169.836 19.912 169.596 19.528 169.276 19.24C168.972 18.952 168.596 18.744 168.148 18.616C167.7 18.488 167.204 18.424 166.66 18.424C166.116 18.424 165.62 18.488 165.172 18.616C164.74 18.744 164.364 18.952 164.044 19.24C163.724 19.528 163.476 19.912 163.3 20.392C163.124 20.872 163.036 21.472 163.036 22.192C163.036 22.896 163.124 23.488 163.3 23.968C163.476 24.448 163.724 24.84 164.044 25.144C164.364 25.432 164.74 25.64 165.172 25.768C165.62 25.896 166.116 25.96 166.66 25.96ZM176.502 15.112C175.99 15.112 175.582 14.96 175.278 14.656C174.99 14.352 174.846 14 174.846 13.6C174.846 13.232 174.99 12.888 175.278 12.568C175.582 12.248 175.99 12.088 176.502 12.088C177.014 12.088 177.414 12.232 177.702 12.52C178.006 12.808 178.158 13.152 178.158 13.552C178.158 13.952 178.014 14.312 177.726 14.632C177.438 14.952 177.03 15.112 176.502 15.112ZM172.11 32.392V30.352H174.582C174.87 30.352 175.046 30.256 175.11 30.064C175.19 29.872 175.23 29.592 175.23 29.224V16.36H177.822V29.176C177.822 30.248 177.622 31.048 177.222 31.576C176.838 32.12 176.182 32.392 175.254 32.392H172.11ZM191.145 28C190.505 28 189.953 27.824 189.489 27.472C189.041 27.12 188.817 26.584 188.817 25.864C188.545 26.632 188.073 27.216 187.401 27.616C186.745 28.016 186.009 28.248 185.193 28.312C184.633 28.344 184.065 28.296 183.489 28.168C182.929 28.056 182.417 27.864 181.953 27.592C181.489 27.304 181.105 26.944 180.801 26.512C180.513 26.064 180.353 25.544 180.321 24.952C180.289 24.104 180.425 23.424 180.729 22.912C181.033 22.4 181.433 22.008 181.929 21.736C182.425 21.448 182.985 21.256 183.609 21.16C184.233 21.064 184.841 21.016 185.433 21.016H188.817V19.72C188.817 19.16 188.537 18.752 187.977 18.496C187.417 18.24 186.737 18.112 185.937 18.112C185.185 18.096 184.545 18.232 184.017 18.52C183.489 18.808 183.225 19.24 183.225 19.816H180.897C180.897 19.128 181.033 18.552 181.305 18.088C181.577 17.608 181.945 17.224 182.409 16.936C182.873 16.648 183.409 16.44 184.017 16.312C184.625 16.184 185.265 16.12 185.937 16.12C186.881 16.12 187.697 16.216 188.385 16.408C189.073 16.6 189.633 16.856 190.065 17.176C190.513 17.48 190.841 17.84 191.049 18.256C191.257 18.672 191.361 19.096 191.361 19.528V25.336C191.361 25.576 191.425 25.776 191.553 25.936C191.681 26.08 191.865 26.152 192.105 26.152H192.321V28H191.145ZM182.817 24.448C182.785 24.784 182.825 25.08 182.937 25.336C183.065 25.592 183.241 25.808 183.465 25.984C183.689 26.144 183.953 26.264 184.257 26.344C184.577 26.424 184.905 26.464 185.241 26.464C185.593 26.464 185.953 26.424 186.321 26.344C186.689 26.248 187.033 26.104 187.353 25.912C187.689 25.72 187.985 25.48 188.241 25.192C188.497 24.904 188.681 24.576 188.793 24.208V22.552H185.553C185.297 22.552 185.017 22.576 184.713 22.624C184.409 22.656 184.121 22.736 183.849 22.864C183.593 22.992 183.361 23.184 183.153 23.44C182.961 23.68 182.849 24.016 182.817 24.448Z" fill="white"/>
<defs>
<filter id="filter0_ddiii_694_4404" x="0.4375" y="-2.5625" width="46.125" height="48.6875" filterUnits="userSpaceOnUse" color-interpolation-filters="sRGB">
<feFlood flood-opacity="0" result="BackgroundImageFix"/>
<feColorMatrix in="SourceAlpha" type="matrix" values="0 0 0 0 0 0 0 0 0 0 0 0 0 0 0 0 0 0 127 0" result="hardAlpha"/>
<feOffset dy="0.854167"/>
<feGaussianBlur stdDeviation="0.427083"/>
<feComposite in2="hardAlpha" operator="out"/>
<feColorMatrix type="matrix" values="0 0 0 0 0.162923 0 0 0 0 0.162923 0 0 0 0 0.162923 0 0 0 0.08 0"/>
<feBlend mode="normal" in2="BackgroundImageFix" result="effect1_dropShadow_694_4404"/>
<feColorMatrix in="SourceAlpha" type="matrix" values="0 0 0 0 0 0 0 0 0 0 0 0 0 0 0 0 0 0 127 0" result="hardAlpha"/>
<feMorphology radius="0.854167" operator="erode" in="SourceAlpha" result="effect2_dropShadow_694_4404"/>
<feOffset dy="2.5625"/>
<feGaussianBlur stdDeviation="1.70833"/>
<feComposite in2="hardAlpha" operator="out"/>
<feColorMatrix type="matrix" values="0 0 0 0 0.164706 0 0 0 0 0.164706 0 0 0 0 0.164706 0 0 0 0.14 0"/>
<feBlend mode="normal" in2="effect1_dropShadow_694_4404" result="effect2_dropShadow_694_4404"/>
<feBlend mode="normal" in="SourceGraphic" in2="effect2_dropShadow_694_4404" result="shape"/>
<feColorMatrix in="SourceAlpha" type="matrix" values="0 0 0 0 0 0 0 0 0 0 0 0 0 0 0 0 0 0 127 0" result="hardAlpha"/>
<feOffset dy="-2.5625"/>
<feGaussianBlur stdDeviation="1.28125"/>
<feComposite in2="hardAlpha" operator="arithmetic" k2="-1" k3="1"/>
<feColorMatrix type="matrix" values="0 0 0 0 0 0 0 0 0 0 0 0 0 0 0 0 0 0 0.1 0"/>
<feBlend mode="normal" in2="shape" result="effect3_innerShadow_694_4404"/>
<feColorMatrix in="SourceAlpha" type="matrix" values="0 0 0 0 0 0 0 0 0 0 0 0 0 0 0 0 0 0 127 0" result="hardAlpha"/>
<feOffset dy="2.5625"/>
<feGaussianBlur stdDeviation="1.28125"/>
<feComposite in2="hardAlpha" operator="arithmetic" k2="-1" k3="1"/>
<feColorMatrix type="matrix" values="0 0 0 0 1 0 0 0 0 1 0 0 0 0 1 0 0 0 0.1 0"/>
<feBlend mode="normal" in2="effect3_innerShadow_694_4404" result="effect4_innerShadow_694_4404"/>
<feColorMatrix in="SourceAlpha" type="matrix" values="0 0 0 0 0 0 0 0 0 0 0 0 0 0 0 0 0 0 127 0" result="hardAlpha"/>
<feMorphology radius="0.854167" operator="erode" in="SourceAlpha" result="effect5_innerShadow_694_4404"/>
<feOffset/>
<feComposite in2="hardAlpha" operator="arithmetic" k2="-1" k3="1"/>
<feColorMatrix type="matrix" values="0 0 0 0 0 0 0 0 0 0 0 0 0 0 0 0 0 0 0.2 0"/>
<feBlend mode="normal" in2="effect4_innerShadow_694_4404" result="effect5_innerShadow_694_4404"/>
</filter>
<filter id="filter1_d_694_4404" x="6.26875" y="3.42949" width="32.775" height="38.2374" filterUnits="userSpaceOnUse" color-interpolation-filters="sRGB">
<feFlood flood-opacity="0" result="BackgroundImageFix"/>
<feColorMatrix in="SourceAlpha" type="matrix" values="0 0 0 0 0 0 0 0 0 0 0 0 0 0 0 0 0 0 127 0" result="hardAlpha"/>
<feMorphology radius="1.36563" operator="erode" in="SourceAlpha" result="effect1_dropShadow_694_4404"/>
<feOffset dy="2.04844"/>
<feGaussianBlur stdDeviation="2.04844"/>
<feComposite in2="hardAlpha" operator="out"/>
<feColorMatrix type="matrix" values="0 0 0 0 0.141176 0 0 0 0 0.141176 0 0 0 0 0.141176 0 0 0 0.1 0"/>
<feBlend mode="normal" in2="BackgroundImageFix" result="effect1_dropShadow_694_4404"/>
<feBlend mode="normal" in="SourceGraphic" in2="effect1_dropShadow_694_4404" result="shape"/>
</filter>
<linearGradient id="paint0_linear_694_4404" x1="20.5" y1="5.09123e-07" x2="22.2083" y2="41" gradientUnits="userSpaceOnUse">
<stop stop-color="white" stop-opacity="0"/>
<stop offset="1" stop-color="white" stop-opacity="0.12"/>
</linearGradient>
<linearGradient id="paint1_linear_694_4404" x1="23.5" y1="0" x2="23.5" y2="41" gradientUnits="userSpaceOnUse">
<stop stop-color="white" stop-opacity="0.12"/>
<stop offset="1" stop-color="white" stop-opacity="0"/>
</linearGradient>
<clipPath id="clip0_694_4404">
<rect x="3" width="41" height="41" rx="10.25" fill="white"/>
</clipPath>
</defs>
</svg>
